<svg xmlns="http://www.w3.org/2000/svg" width="16" height="17" viewBox="0 0 16 17" fill="none">
  <path d="M0 3.25244H16V13.7474H0V3.25244Z" fill="#6DA544"/>
  <path d="M1.77148 8.53791L7.96498 4.44141L14.2395 8.46941L8.04648 12.5489L1.77148 8.53791Z" fill="#FFDA44"/>
  <path d="M8.00549 10.9859C9.38621 10.9859 10.5055 9.87085 10.5055 8.49538C10.5055 7.11992 9.38621 6.00488 8.00549 6.00488C6.62478 6.00488 5.50549 7.11992 5.50549 8.49538C5.50549 9.87085 6.62478 10.9859 8.00549 10.9859Z" fill="#F0F0F0"/>
  <path d="M6.75549 8.3396C6.33171 8.33916 5.9103 8.40271 5.50549 8.5281C5.51383 9.05618 5.6892 9.56805 6.00643 9.9903C6.32367 10.4126 6.76649 10.7235 7.27137 10.8785C7.77625 11.0335 8.31726 11.0247 8.8168 10.8532C9.31633 10.6818 9.74874 10.3565 10.052 9.9241C9.65663 9.42956 9.15503 9.03035 8.58437 8.75606C8.01372 8.48177 7.38865 8.33943 6.75549 8.3396Z" fill="#0052B4"/>
  <path d="M10.4595 8.9725C10.5741 8.36811 10.4618 7.74269 10.1441 7.21589C9.82647 6.68909 9.32574 6.29791 8.73773 6.11717C8.14972 5.93644 7.51572 5.97884 6.95702 6.23627C6.39832 6.49371 5.95414 6.94809 5.70947 7.5125C6.56012 7.33673 7.44136 7.37837 8.27164 7.63358C9.10192 7.88878 9.85441 8.34929 10.4595 8.9725Z" fill="#0052B4"/>
</svg>