<svg width="32" height="32" viewBox="0 0 32 32" fill="none" xmlns="http://www.w3.org/2000/svg">
<rect width="32" height="32" rx="16" fill="#1F4287"/>
<path d="M9.93872 7.74073C8.7554 7.74073 7.88081 8.77659 7.92044 9.89909C7.95731 10.9783 7.90846 12.3763 7.55642 13.5154C7.20345 14.6582 6.60718 15.3825 5.63214 15.4756V16.5244C6.60718 16.6175 7.20345 17.3418 7.55642 18.4846C7.90846 19.6246 7.95731 21.0217 7.91952 22.1009C7.88081 23.2234 8.7554 24.2593 9.93964 24.2593H22.0622C23.2455 24.2593 24.121 23.2234 24.0823 22.1009C24.0445 21.0217 24.0934 19.6246 24.4445 18.4846C24.7984 17.3418 25.3937 16.6175 26.3679 16.5244V15.4756C25.3928 15.3825 24.7984 14.6582 24.4445 13.5154C24.0934 12.3763 24.0445 10.9783 24.0823 9.89909C24.121 8.77659 23.2455 7.74073 22.0622 7.74073H9.93872ZM19.69 17.9086C19.69 19.455 18.5371 20.3932 16.623 20.3932H13.3643C13.3181 20.3933 13.2723 20.3843 13.2296 20.3667C13.1869 20.3491 13.1481 20.3233 13.1154 20.2907C13.0827 20.2581 13.0567 20.2193 13.039 20.1767C13.0213 20.134 13.0122 20.0883 13.0122 20.0421V11.9579C13.0123 11.9118 13.0215 11.8662 13.0393 11.8236C13.0571 11.7811 13.083 11.7424 13.1157 11.7099C13.1484 11.6774 13.1872 11.6516 13.2298 11.6341C13.2725 11.6166 13.3181 11.6076 13.3643 11.6077H16.6036C18.1998 11.6077 19.2477 12.4712 19.2477 13.7992C19.2477 14.73 18.5427 15.565 17.645 15.7106V15.7595C18.8671 15.8931 19.69 16.74 19.69 17.9086ZM16.2673 12.721H14.4093V15.3457H15.9742C17.1842 15.3457 17.8505 14.8582 17.8505 13.9873C17.8505 13.1716 17.2773 12.721 16.2673 12.721ZM14.4093 16.3861V19.279H16.3355C17.5953 19.279 18.2616 18.7731 18.2616 17.8229C18.2616 16.8737 17.5768 16.3861 16.2544 16.3861H14.4093Z" fill="#F7F7F7"/>
</svg>
