<svg width="32" height="32" viewBox="0 0 32 32" fill="none" xmlns="http://www.w3.org/2000/svg">
<rect width="32" height="32" rx="16" fill="#1F4287"/>
<path d="M3.75708 13.5319V18.4601H4.60299V14.5852L7.72264 18.462H13.0204V17.6752H9.60174V16.3742H12.3507V15.5874H9.60174V14.3208H13.0202V13.5334H8.75563V14.3208H8.75602V18.4256L4.81437 13.5319H3.75708ZM20.0344 13.5338V14.321H21.7618V18.4626H22.6074V14.321H24.2997V13.5336H20.0344V13.5338ZM14.0427 13.5359L18.0082 18.4645H19.1183L17.1355 16.0019L19.1154 13.5397L18.0078 13.5417L16.581 15.3133L15.1501 13.5361H14.0425L14.0427 13.5359ZM27.4636 16.3285C27.318 16.3285 27.1872 16.3529 27.0712 16.4038C26.9561 16.4541 26.865 16.5249 26.7984 16.6158C26.7315 16.7068 26.698 16.8132 26.698 16.9341C26.698 17.0814 26.7474 17.1989 26.8472 17.2874C26.9461 17.3762 27.0819 17.4422 27.2535 17.4856L27.4907 17.5453C27.5577 17.5615 27.6233 17.5829 27.687 17.6092C27.7365 17.6287 27.7811 17.6588 27.8177 17.6974C27.8494 17.7344 27.8663 17.7819 27.8651 17.8307C27.8656 17.8867 27.8464 17.941 27.811 17.9843C27.7725 18.0308 27.7223 18.0661 27.6656 18.0867C27.5963 18.1122 27.5229 18.1247 27.449 18.1234C27.3764 18.1244 27.3041 18.1126 27.2356 18.0886C27.1759 18.0671 27.1229 18.0303 27.0818 17.982C27.0413 17.9311 27.0177 17.8689 27.0144 17.8039H26.6431C26.6483 17.9397 26.6844 18.0557 26.7514 18.1505C26.8183 18.2454 26.9113 18.3175 27.0307 18.3667C27.1493 18.4164 27.2903 18.4413 27.4519 18.4413C27.6193 18.4413 27.7616 18.4153 27.8791 18.3648C27.9971 18.3131 28.0872 18.2418 28.1496 18.1509C28.2121 18.0593 28.2429 17.9543 28.2429 17.8338C28.2429 17.7446 28.2257 17.667 28.192 17.601C28.1586 17.5353 28.1117 17.4775 28.0543 17.4313C27.9946 17.3835 27.9284 17.3444 27.8577 17.3152C27.7841 17.284 27.7079 17.2593 27.63 17.2415L27.4349 17.1937C27.3918 17.1834 27.3492 17.1709 27.3073 17.1564C27.2672 17.1428 27.2289 17.1245 27.1931 17.1019C27.1598 17.082 27.1317 17.0546 27.1108 17.0219C27.09 16.9887 27.0795 16.9501 27.0806 16.911C27.0808 16.8615 27.0967 16.8135 27.1261 16.7738C27.156 16.7336 27.1998 16.7019 27.2558 16.6781C27.3202 16.6534 27.3889 16.6414 27.4578 16.6429C27.5698 16.6429 27.661 16.6671 27.7314 16.7162C27.7654 16.7392 27.7938 16.7695 27.8144 16.8049C27.835 16.8404 27.8474 16.88 27.8506 16.9209H28.214C28.214 16.8107 28.1797 16.7033 28.1159 16.6135C28.0522 16.5243 27.9644 16.4541 27.8525 16.4038C27.7408 16.3531 27.6115 16.3285 27.4636 16.3285ZM25.9336 16.356V17.8003C25.933 17.8724 25.9217 17.9336 25.8999 17.9828C25.8803 18.0293 25.8464 18.0684 25.8031 18.0945C25.7614 18.1199 25.7098 18.1328 25.6495 18.1328C25.594 18.1328 25.5451 18.1219 25.502 18.1002C25.4605 18.0799 25.4258 18.0479 25.4022 18.0082C25.3772 17.9646 25.3643 17.915 25.3649 17.8648H24.9894C24.9894 17.9912 25.0175 18.0968 25.0749 18.1815C25.1319 18.2665 25.2124 18.333 25.3065 18.3732C25.4104 18.4177 25.5225 18.4399 25.6356 18.4383C25.7689 18.4383 25.8863 18.4126 25.9866 18.3617C26.085 18.3129 26.1671 18.2365 26.223 18.1419C26.2791 18.0465 26.308 17.9329 26.3087 17.8001V16.356H25.9336ZM15.7314 16.3673L14.0396 18.4681H15.1501L16.2858 17.0563L15.7314 16.3673ZM24.4899 17.9929C24.4279 17.9929 24.3751 18.0143 24.3311 18.0572C24.3099 18.0768 24.293 18.1007 24.2817 18.1273C24.2703 18.1539 24.2647 18.1826 24.2653 18.2116C24.2646 18.2408 24.2701 18.2699 24.2814 18.2969C24.2928 18.3238 24.3097 18.3481 24.3311 18.3681C24.3751 18.4111 24.4279 18.4323 24.4899 18.4323C24.5285 18.4326 24.5665 18.4223 24.5997 18.4025C24.6333 18.3833 24.6614 18.3559 24.6816 18.3229C24.7022 18.2894 24.7132 18.2509 24.7133 18.2116C24.7133 18.1826 24.7073 18.1539 24.6956 18.1273C24.684 18.1007 24.667 18.0768 24.6456 18.0572C24.6253 18.0366 24.601 18.0203 24.5742 18.0093C24.5475 17.9983 24.5188 17.9927 24.4899 17.9929Z" fill="#F7F7F7"/>
</svg>
