<svg width="32" height="32" viewBox="0 0 32 32" fill="none" xmlns="http://www.w3.org/2000/svg">
<rect width="32" height="32" rx="16" fill="#1F4287"/>
<path d="M16 10C13.33 10 11.67 11.33 11 14C12 12.67 13.17 12.17 14.5 12.5C15.26 12.69 15.81 13.24 16.41 13.85C17.39 14.85 18.5 16 21 16C23.67 16 25.33 14.67 26 12C25 13.33 23.83 13.83 22.5 13.5C21.74 13.31 21.2 12.76 20.59 12.15C19.61 11.15 18.5 10 16 10ZM11 16C8.33 16 6.67 17.33 6 20C7 18.67 8.17 18.17 9.5 18.5C10.26 18.69 10.8 19.24 11.41 19.85C12.39 20.85 13.5 22 16 22C18.67 22 20.33 20.67 21 18C20 19.33 18.83 19.83 17.5 19.5C16.74 19.31 16.2 18.76 15.59 18.15C14.61 17.15 13.5 16 11 16Z" fill="#F7F7F7"/>
</svg>
