<svg width="32" height="32" viewBox="0 0 32 32" fill="none" xmlns="http://www.w3.org/2000/svg">
<rect width="32" height="32" rx="16" fill="#1F4287"/>
<path d="M23.1079 16.376C22.9905 16.242 22.8669 16.1077 22.7369 15.973C22.8275 15.877 22.9155 15.7813 23.0009 15.686C24.6059 13.882 25.2839 12.072 24.6559 10.985C24.0539 9.942 22.2629 9.631 20.0199 10.067C19.7992 10.1103 19.5795 10.159 19.3609 10.213C19.3189 10.069 19.2745 9.92567 19.2279 9.783C18.4669 7.49 17.2379 5.999 15.9819 6C14.7779 6 13.6139 7.397 12.8709 9.558C12.7975 9.77133 12.7299 9.986 12.6679 10.202C12.5219 10.166 12.3752 10.1327 12.2279 10.102C9.86187 9.617 7.95687 9.937 7.32987 11.026C6.72887 12.069 7.35687 13.776 8.85787 15.498C9.0072 15.668 9.16053 15.8347 9.31787 15.998C9.13187 16.188 8.95687 16.379 8.79287 16.569C7.32787 18.267 6.73587 19.945 7.33587 20.984C7.95587 22.058 9.83387 22.409 12.1209 21.959C12.3062 21.9223 12.4905 21.881 12.6739 21.835C12.7405 22.069 12.8142 22.3013 12.8949 22.532C13.6349 24.649 14.7919 26 15.9919 26C17.2319 26 18.4739 24.547 19.2269 22.341C19.2869 22.167 19.3419 21.986 19.3959 21.8C19.6325 21.8587 19.8709 21.9107 20.1109 21.956C22.3139 22.373 24.0629 22.046 24.6619 21.006C25.2809 19.931 24.6419 18.129 23.1079 16.376ZM8.06987 11.452C8.45587 10.782 10.0129 10.52 12.0559 10.94C12.1865 10.9667 12.3195 10.9967 12.4549 11.03C12.2552 11.9124 12.1142 12.807 12.0329 13.708C11.2961 14.2261 10.5937 14.7912 9.92987 15.4C9.78387 15.2487 9.64153 15.0937 9.50287 14.935C8.21587 13.461 7.70787 12.081 8.06987 11.452ZM11.9569 17.18C11.4469 16.793 10.9719 16.397 10.5409 15.999C10.9709 15.603 11.4459 15.209 11.9559 14.823C11.9372 15.2157 11.9282 15.6087 11.9289 16.002C11.9289 16.3953 11.9382 16.788 11.9569 17.18ZM11.9569 21.12C11.0901 21.313 10.1952 21.3449 9.31687 21.214C9.07608 21.1952 8.84172 21.1272 8.62826 21.0141C8.41481 20.9011 8.2268 20.7456 8.07587 20.557C7.71087 19.927 8.18687 18.579 9.43987 17.127C9.5972 16.945 9.75987 16.7677 9.92787 16.595C10.592 17.2075 11.2958 17.7754 12.0349 18.295C12.117 19.2074 12.2593 20.1134 12.4609 21.007C12.2942 21.049 12.1259 21.087 11.9559 21.121L11.9569 21.12ZM19.0569 13.081C18.7215 12.8697 18.3822 12.6653 18.0389 12.468C17.7002 12.2733 17.3579 12.0857 17.0119 11.905C17.5807 11.6648 18.1611 11.4528 18.7509 11.27C18.8833 11.8681 18.9854 12.4726 19.0569 13.081ZM13.6799 9.835C14.3159 7.985 15.2579 6.855 15.9839 6.855C16.7569 6.854 17.7609 8.073 18.4179 10.052C18.4605 10.1813 18.5005 10.3113 18.5379 10.442C17.6754 10.7093 16.8316 11.0333 16.0119 11.412C15.1949 11.0287 14.353 10.7009 13.4919 10.431C13.5499 10.231 13.6125 10.0323 13.6799 9.835ZM13.2799 11.259C13.867 11.4438 14.4444 11.6581 15.0099 11.901C14.3085 12.2623 13.6259 12.656 12.9619 13.082C13.0419 12.444 13.1489 11.833 13.2799 11.259ZM12.9629 18.919C13.2942 19.1317 13.6305 19.336 13.9719 19.532C14.3199 19.732 14.6722 19.924 15.0289 20.108C14.4593 20.3594 13.8772 20.5813 13.2849 20.773C13.1472 20.161 13.0398 19.5426 12.9629 18.92V18.919ZM18.4189 22.065C18.1528 22.912 17.7332 23.7029 17.1809 24.398C17.0445 24.5973 16.8687 24.7665 16.6644 24.8951C16.4601 25.0238 16.2315 25.1092 15.9929 25.146C15.2639 25.146 14.3349 24.061 13.7029 22.25C13.6282 22.036 13.5595 21.82 13.4969 21.602C14.3621 21.3229 15.2073 20.9855 16.0269 20.592C16.8535 20.9737 17.7044 21.3008 18.5739 21.571C18.5259 21.737 18.4742 21.9017 18.4189 22.065ZM18.7809 20.741C18.1834 20.5544 17.5954 20.3388 17.0189 20.095C17.3582 19.917 17.6999 19.7287 18.0439 19.53C18.3972 19.326 18.7412 19.117 19.0759 18.903C19.009 19.5203 18.9106 20.1338 18.7809 20.741ZM19.2279 15.998C19.2279 16.6053 19.2089 17.212 19.1709 17.818C18.6779 18.152 18.1579 18.478 17.6169 18.79C17.0769 19.101 16.5439 19.387 16.0199 19.646C15.4685 19.382 14.9279 19.0973 14.3979 18.792C13.8712 18.4887 13.3565 18.1657 12.8539 17.823C12.8072 17.2163 12.7839 16.609 12.7839 16.001C12.7839 15.3937 12.8065 14.7867 12.8519 14.18C13.8571 13.4937 14.9128 12.8843 16.0099 12.357C16.5539 12.6217 17.0882 12.9053 17.6129 13.208C18.1395 13.5107 18.6562 13.8303 19.1629 14.167C19.2062 14.7763 19.2279 15.3867 19.2279 15.998ZM20.1839 10.905C22.1059 10.532 23.5539 10.783 23.9169 11.412C24.3039 12.082 23.7499 13.56 22.3629 15.118C22.2862 15.204 22.2069 15.2903 22.1249 15.377C21.4493 14.7663 20.733 14.2024 19.9809 13.689C19.9051 12.798 19.7698 11.913 19.5759 11.04C19.7825 10.9893 19.9852 10.9443 20.1839 10.905ZM20.0539 14.79C20.5614 15.1604 21.0494 15.557 21.5159 15.978C21.0516 16.4058 20.5652 16.809 20.0589 17.186C20.0742 16.79 20.0819 16.394 20.0819 15.998C20.0819 15.5953 20.0725 15.1927 20.0539 14.79ZM23.9229 20.579C23.5589 21.21 22.1549 21.473 20.2699 21.117C20.0539 21.0763 19.8325 21.0277 19.6059 20.971C19.7951 20.0867 19.9244 19.1907 19.9929 18.289C20.7437 17.767 21.4577 17.194 22.1299 16.574C22.2479 16.696 22.3599 16.8173 22.4659 16.938C23.0669 17.5916 23.5425 18.3502 23.8689 19.176C23.9733 19.3937 24.032 19.6306 24.0413 19.8719C24.0506 20.1132 24.0103 20.3539 23.9229 20.579ZM15.1039 14.438C14.798 14.6146 14.5513 14.878 14.3951 15.1948C14.2389 15.5116 14.1801 15.8676 14.2262 16.2178C14.2723 16.568 14.4212 16.8966 14.6541 17.1622C14.887 17.4278 15.1934 17.6183 15.5346 17.7098C15.8757 17.8012 16.2364 17.7895 16.5709 17.676C16.9053 17.5625 17.1987 17.3523 17.4137 17.0721C17.6288 16.7919 17.7559 16.4543 17.7791 16.1018C17.8023 15.7493 17.7204 15.3979 17.5439 15.092C17.4266 14.8888 17.2705 14.7107 17.0844 14.5679C16.8983 14.4251 16.6859 14.3203 16.4593 14.2596C16.2328 14.1988 15.9964 14.1833 15.7639 14.2139C15.5313 14.2446 15.307 14.3207 15.1039 14.438Z" fill="#F7F7F7"/>
</svg>
