<svg width="32" height="32" viewBox="0 0 32 32" fill="none" xmlns="http://www.w3.org/2000/svg">
<rect width="32" height="32" rx="16" fill="#1F4287"/>
<path d="M9 8.5H23V22.5H9V8.5ZM16.5938 19.4375V14.9375H15.2812V19.4062C15.2812 20.0625 15 20.25 14.5938 20.25C14.125 20.25 13.9375 19.9375 13.75 19.5625L12.6562 20.2188C12.9688 20.875 13.5938 21.4062 14.625 21.4062C15.8125 21.4062 16.5938 20.7812 16.5938 19.4375ZM19.7188 21.4062C20.9688 21.4062 21.9062 20.7812 21.9062 19.5938C21.9062 18.5 21.2812 18 20.1562 17.5312L19.8125 17.375C19.25 17.125 19 16.9688 19 16.5625C19 16.25 19.25 16 19.625 16C20.0312 16 20.25 16.1875 20.5 16.5625L21.5 15.9062C21.0938 15.1562 20.4688 14.875 19.6562 14.875C18.4688 14.875 17.7188 15.625 17.7188 16.5938C17.7188 17.6875 18.3438 18.1875 19.2812 18.5938L19.625 18.7188C20.2188 19 20.5938 19.1562 20.5938 19.5938C20.5938 19.9688 20.2188 20.25 19.6875 20.25C19.0312 20.25 18.6875 19.9062 18.4062 19.4688L17.3125 20.0625C17.7188 20.8438 18.5 21.4062 19.7188 21.4062Z" fill="white"/>
</svg>
