<svg width="24" height="25" viewBox="0 0 24 25" fill="none" xmlns="http://www.w3.org/2000/svg">
<path d="M8.92822 16.5L8.42822 20.5" stroke="#F7F7F7" stroke-width="1.5" stroke-linecap="round" stroke-linejoin="round"/>
<path d="M20 8.5V5.928C20 4.58705 18.9129 3.5 17.572 3.5H5.428C4.08705 3.5 3 4.58705 3 5.928V14.072C3 15.4129 4.08705 16.5 5.428 16.5H13" stroke="#F7F7F7" stroke-width="1.5" stroke-linecap="round" stroke-linejoin="round"/>
<path d="M6.92822 20.5H11.0002" stroke="#F7F7F7" stroke-width="1.5" stroke-linecap="round" stroke-linejoin="round"/>
<path fill-rule="evenodd" clip-rule="evenodd" d="M15 21V20.594C15.0033 19.4389 15.9389 18.5033 17.094 18.5H19.906C21.0611 18.5033 21.9967 19.4389 22 20.594V21C22 21.2761 21.7761 21.5 21.5 21.5H15.5C15.2239 21.5 15 21.2761 15 21Z" stroke="#F7F7F7" stroke-width="1.5" stroke-linecap="round" stroke-linejoin="round"/>
<circle cx="18.5" cy="14" r="2" stroke="#F7F7F7" stroke-width="1.5" stroke-linecap="round" stroke-linejoin="round"/>
<path d="M7 7.5L8.49116 8.99116L7 10.4823" stroke="#F7F7F7" stroke-width="1.5" stroke-linecap="round" stroke-linejoin="round"/>
<path d="M10.5 11.5H12" stroke="#F7F7F7" stroke-width="1.5" stroke-linecap="round" stroke-linejoin="round"/>
</svg>
