<svg width="166" height="19" viewBox="0 0 166 19" fill="none" xmlns="http://www.w3.org/2000/svg">
<path d="M9.92 7.44C9.928 6.824 9.836 6.22 9.644 5.628C9.46 5.028 9.132 4.532 8.66 4.14C8.196 3.748 7.548 3.552 6.716 3.552C5.5 3.552 4.588 4.092 3.98 5.172C3.38 6.252 3.08 7.824 3.08 9.888C3.08 11.816 3.416 13.296 4.088 14.328C4.768 15.36 5.712 15.876 6.92 15.876C7.68 15.876 8.408 15.716 9.104 15.396C9.808 15.068 10.492 14.628 11.156 14.076C11.452 14.268 11.736 14.536 12.008 14.88C12.28 15.224 12.456 15.56 12.536 15.888C12.088 16.336 11.548 16.744 10.916 17.112C10.284 17.48 9.588 17.776 8.828 18C8.068 18.216 7.268 18.324 6.428 18.324C5.26 18.324 4.272 18.088 3.464 17.616C2.664 17.136 2.016 16.492 1.52 15.684C1.032 14.876 0.676 13.972 0.452 12.972C0.236 11.964 0.128 10.932 0.128 9.876C0.128 7.876 0.432 6.244 1.04 4.98C1.648 3.716 2.456 2.784 3.464 2.184C4.48 1.584 5.588 1.284 6.788 1.284C7.988 1.284 9.024 1.508 9.896 1.956C10.776 2.396 11.452 2.976 11.924 3.696C12.404 4.408 12.644 5.184 12.644 6.024C12.644 6.52 12.516 6.908 12.26 7.188C12.004 7.468 11.6 7.608 11.048 7.608C10.84 7.608 10.648 7.596 10.472 7.572C10.304 7.54 10.12 7.496 9.92 7.44ZM17.9718 18C17.5958 18.072 17.1438 18.108 16.6158 18.108C16.1358 18.108 15.6958 18.072 15.2958 18V0.503999L15.4518 0.347999H16.4958C17.0558 0.347999 17.4398 0.483999 17.6478 0.756C17.8638 1.02 17.9718 1.456 17.9718 2.064V18ZM24.8718 15.372C24.8718 15.796 24.8998 16.2 24.9558 16.584C25.0198 16.968 25.1318 17.3 25.2918 17.58C25.0998 17.748 24.8518 17.888 24.5478 18C24.2438 18.112 23.9238 18.168 23.5878 18.168C23.0518 18.168 22.6758 18.024 22.4598 17.736C22.2438 17.44 22.1358 17.008 22.1358 16.44V10.548C22.1358 9.796 22.0398 9.248 21.8478 8.904C21.6558 8.552 21.2838 8.376 20.7318 8.376C20.3638 8.376 19.9598 8.468 19.5198 8.652C19.0798 8.836 18.6598 9.1 18.2598 9.444C17.8598 9.788 17.5358 10.2 17.2878 10.68V8.124C17.8238 7.516 18.4678 7 19.2198 6.576C19.9798 6.144 20.7918 5.928 21.6558 5.928C22.3998 5.928 23.0078 6.104 23.4798 6.456C23.9518 6.808 24.2998 7.284 24.5238 7.884C24.7558 8.484 24.8718 9.164 24.8718 9.924V15.372ZM27.5465 14.772C27.5465 13.844 27.7505 13.084 28.1585 12.492C28.5745 11.9 29.1305 11.464 29.8265 11.184C30.5305 10.896 31.3105 10.752 32.1665 10.752C32.5985 10.752 33.0945 10.772 33.6545 10.812C34.2145 10.844 34.7345 10.912 35.2145 11.016V12.828C34.8065 12.732 34.3385 12.672 33.8105 12.648C33.2825 12.616 32.8025 12.6 32.3705 12.6C31.6825 12.6 31.1545 12.78 30.7865 13.14C30.4185 13.492 30.2345 13.972 30.2345 14.58C30.2345 15.036 30.3665 15.42 30.6305 15.732C30.8945 16.044 31.2705 16.2 31.7585 16.2C32.3185 16.2 32.9065 16.004 33.5225 15.612C34.1465 15.22 34.6705 14.648 35.0945 13.896L35.5025 15.876C35.2145 16.22 34.8585 16.584 34.4345 16.968C34.0185 17.344 33.5345 17.664 32.9825 17.928C32.4305 18.192 31.8025 18.324 31.0985 18.324C30.2985 18.324 29.6345 18.148 29.1065 17.796C28.5785 17.436 28.1865 16.984 27.9305 16.44C27.6745 15.896 27.5465 15.34 27.5465 14.772ZM37.7225 16.776C37.6665 17.024 37.5425 17.288 37.3505 17.568C37.1665 17.84 36.9705 18.044 36.7625 18.18C36.2185 18.1 35.7745 17.92 35.4305 17.64C35.0865 17.36 34.8305 17.024 34.6625 16.632C34.4945 16.232 34.3905 15.824 34.3505 15.408V10.044C34.3505 9.34 34.1865 8.832 33.8585 8.52C33.5385 8.2 33.0745 8.04 32.4665 8.04C31.8905 8.04 31.2825 8.132 30.6425 8.316C30.0105 8.492 29.3745 8.696 28.7345 8.928C28.5265 8.712 28.3545 8.416 28.2185 8.04C28.0825 7.664 28.0065 7.3 27.9905 6.948C28.4545 6.756 28.9785 6.576 29.5625 6.408C30.1465 6.24 30.7425 6.108 31.3505 6.012C31.9585 5.916 32.5345 5.868 33.0785 5.868C33.8465 5.868 34.5265 6.012 35.1185 6.3C35.7185 6.58 36.1905 7.016 36.5345 7.608C36.8785 8.2 37.0505 8.964 37.0505 9.9V14.82C37.0505 15.244 37.0945 15.62 37.1825 15.948C37.2785 16.276 37.4585 16.552 37.7225 16.776ZM47.63 6.108C47.63 6.46 47.574 6.884 47.462 7.38C47.358 7.868 47.19 8.3 46.958 8.676C46.79 8.628 46.618 8.596 46.442 8.58C46.274 8.564 46.106 8.548 45.938 8.532C45.506 8.532 45.126 8.62 44.798 8.796C44.478 8.972 44.202 9.204 43.97 9.492C43.738 9.772 43.534 10.092 43.358 10.452C43.19 10.804 43.05 11.16 42.938 11.52L42.566 11.04C42.582 10.456 42.658 9.868 42.794 9.276C42.93 8.676 43.138 8.128 43.418 7.632C43.698 7.128 44.074 6.724 44.546 6.42C45.018 6.116 45.598 5.964 46.286 5.964C46.534 5.964 46.762 5.976 46.97 6C47.178 6.024 47.398 6.06 47.63 6.108ZM39.854 7.392C39.918 7.144 40.042 6.876 40.226 6.588C40.41 6.3 40.602 6.088 40.802 5.952C41.666 6.104 42.31 6.508 42.734 7.164C43.158 7.812 43.402 8.636 43.466 9.636V18C43.282 18.032 43.07 18.056 42.83 18.072C42.598 18.096 42.358 18.108 42.11 18.108C41.87 18.108 41.63 18.096 41.39 18.072C41.15 18.056 40.934 18.032 40.742 18V9.864C40.742 9.208 40.646 8.676 40.454 8.268C40.262 7.86 40.062 7.568 39.854 7.392ZM53.9546 15.96C54.0186 16.16 54.0706 16.38 54.1106 16.62C54.1586 16.852 54.1826 17.084 54.1826 17.316C54.1826 17.42 54.1786 17.524 54.1706 17.628C54.1626 17.732 54.1426 17.828 54.1106 17.916C53.8226 17.964 53.4826 18.008 53.0906 18.048C52.6986 18.088 52.3226 18.108 51.9626 18.108C51.1306 18.108 50.5066 17.892 50.0906 17.46C49.6826 17.02 49.4786 16.356 49.4786 15.468V0.503999L49.6346 0.347999H50.6786C51.2386 0.347999 51.6226 0.483999 51.8306 0.756C52.0386 1.02 52.1426 1.456 52.1426 2.064V14.892C52.1426 15.604 52.4666 15.96 53.1146 15.96H53.9546ZM57.3526 12.936V10.98H62.9206V10.668C62.9206 10.148 62.8446 9.672 62.6926 9.24C62.5486 8.808 62.3126 8.46 61.9846 8.196C61.6646 7.932 61.2366 7.8 60.7006 7.8C59.9326 7.8 59.3606 8.124 58.9846 8.772C58.6166 9.42 58.4326 10.324 58.4326 11.484V12.324C58.4326 13.028 58.5006 13.672 58.6366 14.256C58.7806 14.832 59.0446 15.288 59.4286 15.624C59.8126 15.96 60.3606 16.128 61.0726 16.128C61.6726 16.128 62.2486 16.048 62.8006 15.888C63.3526 15.72 63.8766 15.508 64.3726 15.252C64.5966 15.468 64.7806 15.74 64.9246 16.068C65.0686 16.388 65.1606 16.688 65.2006 16.968C64.6166 17.384 63.9206 17.716 63.1126 17.964C62.3126 18.204 61.4926 18.324 60.6526 18.324C59.6846 18.324 58.8766 18.156 58.2286 17.82C57.5806 17.476 57.0646 17.012 56.6806 16.428C56.3046 15.836 56.0366 15.168 55.8766 14.424C55.7166 13.68 55.6366 12.904 55.6366 12.096C55.6366 10.904 55.8206 9.832 56.1886 8.88C56.5566 7.928 57.1166 7.18 57.8686 6.636C58.6206 6.084 59.5686 5.808 60.7126 5.808C61.7526 5.808 62.6286 6.036 63.3406 6.492C64.0606 6.94 64.6046 7.552 64.9726 8.328C65.3406 9.096 65.5246 9.956 65.5246 10.908C65.5246 11.324 65.5086 11.68 65.4766 11.976C65.4446 12.264 65.3886 12.584 65.3086 12.936H57.3526ZM67.3012 17.124C67.3172 16.828 67.4092 16.496 67.5772 16.128C67.7452 15.752 67.9412 15.456 68.1652 15.24C68.6772 15.512 69.2172 15.756 69.7852 15.972C70.3612 16.188 70.9412 16.296 71.5252 16.296C72.1412 16.296 72.6252 16.168 72.9772 15.912C73.3372 15.648 73.5212 15.32 73.5292 14.928C73.5292 14.608 73.4092 14.316 73.1692 14.052C72.9292 13.78 72.5732 13.56 72.1012 13.392L70.7212 12.888C70.1692 12.688 69.6612 12.436 69.1972 12.132C68.7412 11.828 68.3732 11.456 68.0932 11.016C67.8212 10.568 67.6852 10.04 67.6852 9.432C67.6852 8.68 67.8732 8.036 68.2492 7.5C68.6252 6.956 69.1372 6.54 69.7852 6.252C70.4412 5.956 71.1812 5.808 72.0052 5.808C72.6772 5.808 73.3892 5.896 74.1412 6.072C74.8932 6.248 75.5212 6.456 76.0252 6.696C76.0332 6.92 76.0052 7.164 75.9412 7.428C75.8772 7.684 75.7812 7.924 75.6532 8.148C75.5332 8.364 75.3932 8.54 75.2332 8.676C74.8012 8.476 74.3012 8.292 73.7332 8.124C73.1732 7.948 72.5972 7.86 72.0052 7.86C71.5252 7.86 71.1412 7.98 70.8532 8.22C70.5652 8.452 70.4212 8.756 70.4212 9.132C70.4212 9.444 70.5332 9.704 70.7572 9.912C70.9812 10.12 71.3252 10.308 71.7892 10.476L73.2652 11.016C74.1692 11.344 74.9092 11.8 75.4852 12.384C76.0612 12.968 76.3492 13.736 76.3492 14.688C76.3492 15.808 75.9092 16.696 75.0292 17.352C74.1572 18 72.9972 18.324 71.5492 18.324C70.7012 18.324 69.9132 18.204 69.1852 17.964C68.4572 17.724 67.8292 17.444 67.3012 17.124ZM88.2341 1.608C88.4581 1.576 88.7261 1.552 89.0381 1.536C89.3581 1.512 89.6341 1.5 89.8661 1.5C90.0821 1.5 90.3501 1.512 90.6701 1.536C90.9901 1.552 91.2501 1.58 91.4501 1.62L96.7901 17.82C96.5901 17.94 96.3421 18.028 96.0461 18.084C95.7501 18.148 95.4581 18.18 95.1701 18.18C94.7221 18.18 94.3741 18.08 94.1261 17.88C93.8781 17.672 93.6661 17.272 93.4901 16.68L91.0301 8.784C90.8141 8.088 90.5901 7.336 90.3581 6.528C90.1341 5.72 89.9301 4.984 89.7461 4.32H89.6141C89.5341 4.696 89.4341 5.108 89.3141 5.556C89.2021 6.004 89.0861 6.444 88.9661 6.876C88.8461 7.308 88.7381 7.684 88.6421 8.004L85.4981 18.024C85.3221 18.064 85.1301 18.092 84.9221 18.108C84.7221 18.124 84.5101 18.132 84.2861 18.132C84.0541 18.132 83.8141 18.112 83.5661 18.072C83.3181 18.04 83.1061 17.996 82.9301 17.94L82.8341 17.796L88.2341 1.608ZM88.0301 14.148C87.9501 14.148 87.8021 14.148 87.5861 14.148C87.3781 14.14 87.1661 14.136 86.9501 14.136C86.7421 14.128 86.5941 14.124 86.5061 14.124H85.1501L86.0141 11.868H87.2141C87.2941 11.868 87.4261 11.868 87.6101 11.868C87.8021 11.86 87.9941 11.856 88.1861 11.856C88.3781 11.848 88.5141 11.844 88.5941 11.844H90.8621C90.9501 11.844 91.0861 11.848 91.2701 11.856C91.4621 11.856 91.6581 11.86 91.8581 11.868C92.0581 11.868 92.1981 11.868 92.2781 11.868H93.5021L94.2461 14.124H92.8901C92.8101 14.124 92.6621 14.128 92.4461 14.136C92.2301 14.136 92.0141 14.14 91.7981 14.148C91.5821 14.148 91.4341 14.148 91.3541 14.148H88.0301ZM103.22 15.96C103.284 16.16 103.336 16.38 103.376 16.62C103.424 16.852 103.448 17.084 103.448 17.316C103.448 17.42 103.444 17.524 103.436 17.628C103.428 17.732 103.408 17.828 103.376 17.916C103.088 17.964 102.748 18.008 102.356 18.048C101.964 18.088 101.588 18.108 101.228 18.108C100.396 18.108 99.7722 17.892 99.3562 17.46C98.9482 17.02 98.7442 16.356 98.7442 15.468V0.503999L98.9002 0.347999H99.9442C100.504 0.347999 100.888 0.483999 101.096 0.756C101.304 1.02 101.408 1.456 101.408 2.064V14.892C101.408 15.604 101.732 15.96 102.38 15.96H103.22ZM107.105 6.012C107.657 6.012 108.053 6.188 108.293 6.54C108.533 6.884 108.653 7.36 108.653 7.968V18C108.469 18.032 108.257 18.056 108.017 18.072C107.777 18.096 107.537 18.108 107.297 18.108C107.057 18.108 106.817 18.096 106.577 18.072C106.337 18.056 106.121 18.032 105.929 18V6.18L106.085 6.012H107.105ZM112.409 10.536C112.409 9.736 112.289 9.176 112.049 8.856C111.817 8.528 111.485 8.364 111.053 8.364C110.669 8.372 110.257 8.504 109.817 8.76C109.377 9.008 108.969 9.336 108.593 9.744C108.225 10.152 107.941 10.6 107.741 11.088V8.508C108.093 8.028 108.493 7.592 108.941 7.2C109.397 6.808 109.881 6.496 110.393 6.264C110.913 6.032 111.445 5.916 111.989 5.916C112.685 5.916 113.269 6.08 113.741 6.408C114.213 6.736 114.565 7.184 114.797 7.752C115.029 8.312 115.145 8.944 115.145 9.648V18C114.953 18.032 114.737 18.056 114.497 18.072C114.257 18.096 114.021 18.108 113.789 18.108C113.549 18.108 113.309 18.096 113.069 18.072C112.829 18.056 112.609 18.032 112.409 18V10.536ZM118.901 10.512C118.901 9.712 118.777 9.156 118.529 8.844C118.289 8.524 117.957 8.364 117.533 8.364C117.165 8.364 116.765 8.488 116.333 8.736C115.901 8.984 115.493 9.32 115.109 9.744C114.725 10.16 114.409 10.632 114.161 11.16V8.268C114.545 7.836 114.973 7.444 115.445 7.092C115.917 6.732 116.417 6.448 116.945 6.24C117.473 6.024 118.005 5.916 118.541 5.916C119.237 5.916 119.813 6.084 120.269 6.42C120.733 6.748 121.077 7.196 121.301 7.764C121.525 8.332 121.637 8.972 121.637 9.684V15.372C121.637 15.796 121.665 16.2 121.721 16.584C121.785 16.968 121.901 17.3 122.069 17.58C121.869 17.748 121.617 17.888 121.313 18C121.017 18.112 120.701 18.168 120.365 18.168C119.829 18.168 119.449 18.024 119.225 17.736C119.009 17.44 118.901 17.008 118.901 16.44V10.512ZM126.048 12.936V10.98H131.616V10.668C131.616 10.148 131.54 9.672 131.388 9.24C131.244 8.808 131.008 8.46 130.68 8.196C130.36 7.932 129.932 7.8 129.396 7.8C128.628 7.8 128.056 8.124 127.68 8.772C127.312 9.42 127.128 10.324 127.128 11.484V12.324C127.128 13.028 127.196 13.672 127.332 14.256C127.476 14.832 127.74 15.288 128.124 15.624C128.508 15.96 129.056 16.128 129.768 16.128C130.368 16.128 130.944 16.048 131.496 15.888C132.048 15.72 132.572 15.508 133.068 15.252C133.292 15.468 133.476 15.74 133.62 16.068C133.764 16.388 133.856 16.688 133.896 16.968C133.312 17.384 132.616 17.716 131.808 17.964C131.008 18.204 130.188 18.324 129.348 18.324C128.38 18.324 127.572 18.156 126.924 17.82C126.276 17.476 125.76 17.012 125.376 16.428C125 15.836 124.732 15.168 124.572 14.424C124.412 13.68 124.332 12.904 124.332 12.096C124.332 10.904 124.516 9.832 124.884 8.88C125.252 7.928 125.812 7.18 126.564 6.636C127.316 6.084 128.264 5.808 129.408 5.808C130.448 5.808 131.324 6.036 132.036 6.492C132.756 6.94 133.3 7.552 133.668 8.328C134.036 9.096 134.22 9.956 134.22 10.908C134.22 11.324 134.204 11.68 134.172 11.976C134.14 12.264 134.084 12.584 134.004 12.936H126.048ZM140.197 18C140.013 18.032 139.801 18.056 139.561 18.072C139.321 18.096 139.081 18.108 138.84 18.108C138.6 18.108 138.361 18.096 138.121 18.072C137.881 18.056 137.665 18.032 137.473 18V9.372C137.473 8.956 137.397 8.64 137.245 8.424C137.093 8.208 136.817 8.1 136.417 8.1H136.117C136.045 7.78 136.009 7.46 136.009 7.14C136.009 6.988 136.017 6.828 136.033 6.66C136.049 6.492 136.077 6.324 136.117 6.156C136.437 6.116 136.741 6.088 137.029 6.072C137.325 6.056 137.573 6.048 137.773 6.048H138.121C138.769 6.048 139.277 6.252 139.645 6.66C140.013 7.06 140.197 7.612 140.197 8.316V18ZM136.741 2.892C136.741 2.708 136.761 2.512 136.801 2.304C136.841 2.096 136.897 1.912 136.969 1.752C137.129 1.664 137.341 1.592 137.605 1.536C137.877 1.48 138.137 1.452 138.385 1.452C138.633 1.452 138.897 1.48 139.177 1.536C139.457 1.592 139.665 1.664 139.801 1.752C139.873 1.912 139.929 2.1 139.969 2.316C140.009 2.524 140.029 2.716 140.029 2.892C140.029 3.076 140.009 3.272 139.969 3.48C139.929 3.688 139.873 3.868 139.801 4.02C139.673 4.108 139.465 4.184 139.177 4.248C138.897 4.304 138.633 4.332 138.385 4.332C138.137 4.332 137.873 4.304 137.593 4.248C137.321 4.192 137.113 4.116 136.969 4.02C136.897 3.868 136.841 3.688 136.801 3.48C136.761 3.272 136.741 3.076 136.741 2.892ZM152.877 14.604C152.877 15.052 152.925 15.472 153.021 15.864C153.125 16.256 153.301 16.56 153.549 16.776C153.485 17.024 153.357 17.288 153.165 17.568C152.981 17.84 152.785 18.044 152.577 18.18C151.737 18.052 151.133 17.684 150.765 17.076C150.397 16.46 150.213 15.744 150.213 14.928V0.503999L150.369 0.347999H151.413C151.973 0.347999 152.357 0.483999 152.565 0.756C152.773 1.02 152.877 1.456 152.877 2.064V14.604ZM142.953 12.204C142.953 10.788 143.173 9.616 143.613 8.688C144.061 7.752 144.637 7.056 145.341 6.6C146.053 6.144 146.801 5.916 147.585 5.916C148.361 5.916 149.069 6.076 149.709 6.396C150.357 6.716 150.957 7.068 151.509 7.452L151.173 9.564C150.709 9.196 150.201 8.852 149.649 8.532C149.105 8.212 148.553 8.052 147.993 8.052C147.561 8.052 147.173 8.208 146.829 8.52C146.493 8.824 146.225 9.284 146.025 9.9C145.833 10.516 145.737 11.292 145.737 12.228C145.737 13.132 145.829 13.868 146.013 14.436C146.197 15.004 146.441 15.42 146.745 15.684C147.057 15.94 147.393 16.068 147.753 16.068C148.129 16.068 148.529 15.968 148.953 15.768C149.377 15.56 149.769 15.228 150.129 14.772C150.497 14.316 150.781 13.72 150.981 12.984L151.557 14.88C151.421 15.44 151.145 15.984 150.729 16.512C150.313 17.04 149.797 17.476 149.181 17.82C148.565 18.156 147.873 18.324 147.105 18.324C146.185 18.324 145.417 18.064 144.801 17.544C144.185 17.024 143.721 16.304 143.409 15.384C143.105 14.464 142.953 13.404 142.953 12.204ZM155.679 14.772C155.679 13.844 155.883 13.084 156.291 12.492C156.707 11.9 157.263 11.464 157.959 11.184C158.663 10.896 159.443 10.752 160.299 10.752C160.731 10.752 161.227 10.772 161.787 10.812C162.347 10.844 162.867 10.912 163.347 11.016V12.828C162.939 12.732 162.471 12.672 161.943 12.648C161.415 12.616 160.935 12.6 160.503 12.6C159.815 12.6 159.287 12.78 158.919 13.14C158.551 13.492 158.367 13.972 158.367 14.58C158.367 15.036 158.499 15.42 158.763 15.732C159.027 16.044 159.403 16.2 159.891 16.2C160.451 16.2 161.039 16.004 161.655 15.612C162.279 15.22 162.803 14.648 163.227 13.896L163.635 15.876C163.347 16.22 162.991 16.584 162.567 16.968C162.151 17.344 161.667 17.664 161.115 17.928C160.563 18.192 159.935 18.324 159.231 18.324C158.431 18.324 157.767 18.148 157.239 17.796C156.711 17.436 156.319 16.984 156.063 16.44C155.807 15.896 155.679 15.34 155.679 14.772ZM165.855 16.776C165.799 17.024 165.675 17.288 165.483 17.568C165.299 17.84 165.103 18.044 164.895 18.18C164.351 18.1 163.907 17.92 163.563 17.64C163.219 17.36 162.963 17.024 162.795 16.632C162.627 16.232 162.523 15.824 162.483 15.408V10.044C162.483 9.34 162.319 8.832 161.991 8.52C161.671 8.2 161.207 8.04 160.599 8.04C160.023 8.04 159.415 8.132 158.775 8.316C158.143 8.492 157.507 8.696 156.867 8.928C156.659 8.712 156.487 8.416 156.351 8.04C156.215 7.664 156.139 7.3 156.123 6.948C156.587 6.756 157.111 6.576 157.695 6.408C158.279 6.24 158.875 6.108 159.483 6.012C160.091 5.916 160.667 5.868 161.211 5.868C161.979 5.868 162.659 6.012 163.251 6.3C163.851 6.58 164.323 7.016 164.667 7.608C165.011 8.2 165.183 8.964 165.183 9.9V14.82C165.183 15.244 165.227 15.62 165.315 15.948C165.411 16.276 165.591 16.552 165.855 16.776Z" fill="#030E15"/>
</svg>
