<svg xmlns="http://www.w3.org/2000/svg" width="23" height="22" viewBox="0 0 23 22" fill="none">
  <path d="M15.5 7.28174C17.0913 7.28174 18.6174 7.91388 19.7426 9.0391C20.8679 10.1643 21.5 11.6904 21.5 13.2817V20.2817H17.5V13.2817C17.5 12.7513 17.2893 12.2426 16.9142 11.8675C16.5391 11.4925 16.0304 11.2817 15.5 11.2817C14.9696 11.2817 14.4609 11.4925 14.0858 11.8675C13.7107 12.2426 13.5 12.7513 13.5 13.2817V20.2817H9.5V13.2817C9.5 11.6904 10.1321 10.1643 11.2574 9.0391C12.3826 7.91388 13.9087 7.28174 15.5 7.28174Z" stroke="#F8F9FA" stroke-width="1.5" stroke-linecap="round" stroke-linejoin="round"/>
  <path d="M5.5 8.28174H1.5V20.2817H5.5V8.28174Z" stroke="#F8F9FA" stroke-width="1.5" stroke-linecap="round" stroke-linejoin="round"/>
  <path d="M3.5 5.28174C4.60457 5.28174 5.5 4.38631 5.5 3.28174C5.5 2.17717 4.60457 1.28174 3.5 1.28174C2.39543 1.28174 1.5 2.17717 1.5 3.28174C1.5 4.38631 2.39543 5.28174 3.5 5.28174Z" stroke="#F8F9FA" stroke-width="1.5" stroke-linecap="round" stroke-linejoin="round"/>
</svg>