<svg xmlns="http://www.w3.org/2000/svg" width="27" height="12" viewBox="0 0 27 12" fill="none">
  <path d="M18.2607 -0.00872803L18.1767 0.429193C18.0468 1.25912 18.0939 1.49656 18.45 1.80456L18.7939 2.08904L18.4377 3.6772C18.2249 4.62473 17.9639 5.41881 17.7982 5.67977C17.6559 5.90489 17.4902 6.23641 17.4543 6.41449C17.395 6.62729 17.1934 6.84121 16.8854 7.03049C16.6132 7.18505 16.079 7.59945 15.7004 7.9321C15.398 8.20426 15.1897 8.37114 15.0766 8.44282L14.707 8.73514C14.6119 8.87609 14.5404 9.03156 14.4953 9.19546C14.4695 9.3153 14.4841 9.39482 14.5222 9.45306C14.5595 9.50906 14.6222 9.54901 14.7103 9.5729C14.8139 9.59641 14.9202 9.60509 15.0262 9.59866C15.2659 9.58228 15.5032 9.54023 15.734 9.47322C15.8124 9.45194 15.874 9.43178 15.9278 9.41386C16.0107 9.31194 16.2022 9.1193 16.5415 8.78442C17.442 7.89626 17.7859 7.41017 17.4308 7.54121C17.2998 7.58825 17.3591 7.46953 17.5843 7.23209C18.0591 6.76953 18.3313 6.07065 18.9003 3.8788C19.3505 2.1484 19.3505 2.12376 19.682 2.12376C19.8377 2.12376 20.2779 2.15064 20.2779 2.15064V-0.00872803H19.2676H18.2607ZM22.5604 3.53608C22.4888 3.53608 22.37 3.6436 22.2995 3.76232C22.1696 3.97512 22.323 4.10504 24.2785 5.32585C25.44 6.06169 26.3763 6.68889 26.3528 6.73705C26.3293 6.77177 25.3806 7.38889 24.2438 8.1001C22.1808 9.37914 22.1696 9.39146 22.3588 9.65242C22.5963 9.96042 22.3588 10.0668 25.0368 8.39578L26.9811 7.15145V6.21513L24.8116 4.87561C23.639 4.14088 22.6198 3.5484 22.5604 3.53608ZM4.54519 3.66712C4.48583 3.66712 3.46662 4.27192 2.29398 4.99433L0.101013 6.33385V7.27017L2.28166 8.63322C3.49126 9.37914 4.51047 9.99626 4.55751 9.99626C4.60455 9.99626 4.69975 9.88874 4.79495 9.75882C4.93719 9.5337 4.81735 9.4385 2.81478 8.17066C0.907416 6.97337 0.705815 6.80761 0.896216 6.67769C1.01494 6.59481 1.91542 6.03705 2.88758 5.43337C5.10407 4.07032 4.98535 4.1644 4.80727 3.87992C4.73671 3.76232 4.61687 3.65592 4.54631 3.66712H4.54519ZM14.2713 3.69288C13.9443 3.69064 13.2409 4.18904 11.1353 5.90825C11.0446 6.12441 11.0367 6.27337 11.0782 6.36969C11.1058 6.43465 11.154 6.48318 11.2226 6.51529C11.2898 6.54889 11.3772 6.56905 11.4735 6.57689C11.665 6.59369 11.8913 6.56345 12.0738 6.52761L12.197 6.49961C12.2397 6.44349 12.2949 6.39821 12.3583 6.36745C12.4883 6.29577 13.0337 5.79849 13.5791 5.26537C14.539 4.2932 14.7641 3.85416 14.3732 3.71192C14.3415 3.69786 14.3059 3.69135 14.2713 3.69288ZM16.7308 4.36825C16.443 4.37609 15.9244 4.70985 15.0363 5.41881C14.5905 5.78057 14.3083 5.97545 14.1571 6.01577L13.5702 6.47945C13.3495 6.88265 13.3171 7.13241 13.3753 7.27017C13.3899 7.30416 13.411 7.33491 13.4376 7.36067C13.4641 7.38643 13.4955 7.40668 13.5299 7.42025C13.6151 7.4553 13.7065 7.47246 13.7987 7.47065C14.0185 7.46804 14.2369 7.43602 14.4483 7.37545C14.5582 7.34527 14.6669 7.31089 14.7742 7.27241L14.8067 7.25897L14.866 7.22761C14.978 7.08313 15.2356 6.81097 15.5582 6.49737C16.5774 5.51401 17.0982 4.81513 16.9918 4.55417C16.9436 4.42761 16.8607 4.36377 16.7308 4.36825ZM14.0159 5.57785C13.9331 5.58681 13.7471 5.73017 13.4123 6.02361C12.9284 6.45145 12.4009 6.69785 12.2183 6.58809L12.0906 6.61497C11.9047 6.65193 11.6729 6.68217 11.4657 6.66537C11.368 6.65967 11.2723 6.63573 11.1834 6.59481C11.0998 6.55621 11.0329 6.48856 10.9953 6.40441C10.9538 6.30361 10.9538 6.17817 11.0009 6.01801L10.2729 6.61609L8.62536 7.97914V10.1889L14.0238 5.93625C14.0225 5.88968 14.0286 5.8432 14.0417 5.79849C14.0831 5.64841 14.0809 5.57225 14.0159 5.57897V5.57785ZM16.3388 6.29353C16.2571 6.29353 16.1204 6.40889 15.902 6.64073C15.6052 6.95769 15.1382 7.26457 14.8907 7.32729L14.8526 7.34745L14.7294 7.39449C14.6614 7.41764 14.5763 7.44303 14.474 7.47065C14.2724 7.52553 14.0215 7.57593 13.7975 7.57033C13.6918 7.57114 13.5871 7.55057 13.4895 7.50985C13.3971 7.47226 13.3231 7.39986 13.2835 7.30825C13.2185 7.15257 13.2443 6.93417 13.3865 6.62393L8.62424 10.3748V11.7244H10.7164L15.1539 8.23898C15.2688 8.11055 15.4432 7.93695 15.6769 7.71818C16.3041 7.13689 16.4463 6.93641 16.4463 6.63961C16.4463 6.40889 16.4206 6.29241 16.3388 6.29241V6.29353ZM17.395 8.47754L17.0153 8.8561C16.8025 9.0577 16.4228 9.30634 16.163 9.41274L16.1115 9.43514L16.1081 9.44074L16.0969 9.45194C16.0868 9.45978 16.0823 9.4609 16.0745 9.46426C15.971 9.50417 15.8656 9.53893 15.7587 9.56842C15.5215 9.638 15.2773 9.6812 15.0307 9.69722C14.9141 9.70532 14.7969 9.69512 14.6835 9.66698C14.5847 9.64569 14.4976 9.58814 14.4393 9.5057C14.384 9.42282 14.371 9.31269 14.4001 9.1753C14.4229 9.07762 14.4587 8.98345 14.5065 8.8953L10.9258 11.7244H15.6881L16.2571 11.0726C17.0388 10.1609 17.395 9.50906 17.395 8.9513V8.47754Z" fill="white"/>
</svg>