<svg width="28" height="13" viewBox="0 0 28 13" fill="none" xmlns="http://www.w3.org/2000/svg">
<path d="M18.32 0.633423L18.236 1.07134C18.106 1.90127 18.1531 2.13871 18.5092 2.44671L18.8531 2.73119L18.4969 4.31935C18.2841 5.26688 18.0232 6.06096 17.8574 6.32192C17.7151 6.54704 17.5494 6.87856 17.5135 7.05664C17.4542 7.26944 17.2526 7.48336 16.9446 7.67264C16.6724 7.8272 16.1382 8.24161 15.7596 8.57425C15.4572 8.84641 15.2489 9.01329 15.1358 9.08497L14.7662 9.37729C14.6711 9.51824 14.5996 9.67371 14.5545 9.83761C14.5287 9.95745 14.5433 10.037 14.5814 10.0952C14.6187 10.1512 14.6814 10.1912 14.7695 10.2151C14.8731 10.2386 14.9794 10.2472 15.0854 10.2408C15.3251 10.2244 15.5624 10.1824 15.7932 10.1154C15.8716 10.0941 15.9332 10.0739 15.987 10.056C16.0699 9.95409 16.2614 9.76145 16.6007 9.42657C17.5012 8.53841 17.8451 8.05233 17.49 8.18337C17.359 8.23041 17.4183 8.11169 17.6435 7.87424C18.1184 7.41168 18.3905 6.7128 18.9595 4.52095C19.4097 2.79055 19.4097 2.76591 19.7412 2.76591C19.8969 2.76591 20.3371 2.79279 20.3371 2.79279V0.633423H19.3268H18.32ZM22.6196 4.17823C22.548 4.17823 22.4292 4.28575 22.3587 4.40447C22.2288 4.61727 22.3822 4.74719 24.3377 5.968C25.4992 6.70384 26.4355 7.33104 26.412 7.3792C26.3885 7.41392 25.4398 8.03104 24.303 8.74225C22.24 10.0213 22.2288 10.0336 22.418 10.2946C22.6555 10.6026 22.418 10.709 25.096 9.03793L27.0403 7.7936V6.85728L24.8709 5.51776C23.6982 4.78304 22.679 4.19055 22.6196 4.17823ZM4.60439 4.30927C4.54503 4.30927 3.52583 4.91408 2.35318 5.63648L0.160217 6.976V7.91232L2.34086 9.27537C3.55047 10.0213 4.56967 10.6384 4.61671 10.6384C4.66375 10.6384 4.75895 10.5309 4.85415 10.401C4.99639 10.1759 4.87655 10.0807 2.87399 8.81281C0.96662 7.61552 0.765019 7.44976 0.95542 7.31984C1.07414 7.23696 1.97462 6.6792 2.94679 6.07552C5.16327 4.71248 5.04455 4.80656 4.86647 4.52207C4.79591 4.40447 4.67607 4.29807 4.60551 4.30927H4.60439ZM14.3305 4.33503C14.0035 4.33279 13.3001 4.8312 11.1945 6.5504C11.1038 6.76656 11.0959 6.91552 11.1374 7.01184C11.165 7.0768 11.2132 7.12534 11.2819 7.15744C11.3491 7.19104 11.4364 7.2112 11.5327 7.21904C11.7243 7.23584 11.9505 7.2056 12.1331 7.16976L12.2563 7.14176C12.2989 7.08564 12.3541 7.04036 12.4175 7.0096C12.5475 6.93792 13.0929 6.44064 13.6383 5.90752C14.5982 4.93536 14.8233 4.49631 14.4324 4.35407C14.4007 4.34001 14.3651 4.3335 14.3305 4.33503ZM16.79 5.0104C16.5022 5.01824 15.9836 5.352 15.0955 6.06096C14.6497 6.42272 14.3675 6.6176 14.2163 6.65792L13.6294 7.1216C13.4087 7.5248 13.3763 7.77456 13.4345 7.91232C13.4491 7.94631 13.4702 7.97707 13.4968 8.00282C13.5233 8.02858 13.5547 8.04883 13.5891 8.06241C13.6743 8.09745 13.7657 8.11461 13.8579 8.1128C14.0777 8.11019 14.2961 8.07817 14.5075 8.0176C14.6174 7.98742 14.7261 7.95304 14.8334 7.91456L14.8659 7.90112L14.9252 7.86976C15.0372 7.72528 15.2948 7.45312 15.6174 7.13952C16.6366 6.15616 17.1574 5.45728 17.051 5.19632C17.0028 5.06976 16.9199 5.00592 16.79 5.0104ZM14.0751 6.22C13.9923 6.22896 13.8063 6.37232 13.4715 6.66576C12.9876 7.0936 12.4601 7.34 12.2775 7.23024L12.1499 7.25712C11.9639 7.29408 11.7321 7.32432 11.5249 7.30752C11.4272 7.30182 11.3315 7.27789 11.2427 7.23696C11.159 7.19836 11.0921 7.13071 11.0545 7.04656C11.013 6.94576 11.0131 6.82032 11.0601 6.66016L10.3321 7.25824L8.68456 8.62129V10.8311L14.083 6.5784C14.0818 6.53183 14.0878 6.48535 14.1009 6.44064C14.1423 6.29056 14.1401 6.2144 14.0751 6.22112V6.22ZM16.398 6.93568C16.3163 6.93568 16.1796 7.05104 15.9612 7.28288C15.6644 7.59984 15.1974 7.90672 14.9499 7.96944L14.9118 7.9896L14.7886 8.03664C14.7206 8.05979 14.6355 8.08518 14.5332 8.1128C14.3316 8.16768 14.0807 8.21809 13.8567 8.21249C13.751 8.21329 13.6463 8.19272 13.5487 8.15201C13.4563 8.11441 13.3823 8.04202 13.3427 7.9504C13.2777 7.79472 13.3035 7.57632 13.4457 7.26608L8.68344 11.017V12.3666H10.7756L15.2131 8.88113C15.328 8.7527 15.5024 8.5791 15.7361 8.36033C16.3633 7.77904 16.5055 7.57856 16.5055 7.28176C16.5055 7.05104 16.4798 6.93456 16.398 6.93456V6.93568ZM17.4542 9.11969L17.0745 9.49825C16.8617 9.69985 16.482 9.94849 16.2222 10.0549L16.1707 10.0773L16.1673 10.0829L16.1561 10.0941C16.146 10.1019 16.1415 10.1031 16.1337 10.1064C16.0302 10.1463 15.9248 10.1811 15.8179 10.2106C15.5807 10.2802 15.3365 10.3233 15.0899 10.3394C14.9733 10.3475 14.8561 10.3373 14.7427 10.3091C14.6439 10.2878 14.5568 10.2303 14.4985 10.1479C14.4432 10.065 14.4302 9.95484 14.4593 9.81745C14.4821 9.71977 14.5179 9.6256 14.5657 9.53745L10.985 12.3666H15.7473L16.3163 11.7147C17.098 10.8031 17.4542 10.1512 17.4542 9.59345V9.11969Z" fill="#212529"/>
</svg>
