<svg width="22" height="18" viewBox="0 0 22 18" fill="none" xmlns="http://www.w3.org/2000/svg">
<path d="M4.85565 0.731995C3.67233 0.731995 2.79775 1.76786 2.83737 2.89035C2.87424 3.96953 2.82539 5.36758 2.47335 6.50666C2.12038 7.64943 1.52411 8.3738 0.549072 8.46688V9.51565C1.52411 9.60873 2.12038 10.3331 2.47335 11.4759C2.82539 12.6159 2.87424 14.013 2.83645 15.0922C2.79775 16.2147 3.67233 17.2505 4.85657 17.2505H16.9791C18.1625 17.2505 19.038 16.2147 18.9993 15.0922C18.9615 14.013 19.0103 12.6159 19.3614 11.4759C19.7153 10.3331 20.3107 9.60873 21.2848 9.51565V8.46688C20.3098 8.3738 19.7153 7.64943 19.3614 6.50666C19.0103 5.36758 18.9615 3.96953 18.9993 2.89035C19.038 1.76786 18.1625 0.731995 16.9791 0.731995H4.85565ZM14.607 10.8999C14.607 12.4463 13.4541 13.3845 11.5399 13.3845H8.28119C8.235 13.3846 8.18925 13.3756 8.14654 13.358C8.10383 13.3404 8.06501 13.3146 8.03231 13.282C7.99961 13.2493 7.97366 13.2106 7.95596 13.1679C7.93826 13.1253 7.92914 13.0795 7.92914 13.0333V4.94918C7.92927 4.90307 7.93847 4.85743 7.95622 4.81488C7.97398 4.77233 7.99995 4.73369 8.03264 4.70117C8.06533 4.66865 8.1041 4.64288 8.14675 4.62535C8.1894 4.60782 8.23508 4.59885 8.28119 4.59898H11.5206C13.1168 4.59898 14.1646 5.4625 14.1646 6.79051C14.1646 7.72131 13.4596 8.55627 12.562 8.70188V8.75073C13.784 8.88436 14.607 9.7313 14.607 10.8999ZM11.1842 5.71225H9.32627V8.33693H10.8911C12.1012 8.33693 12.7675 7.84941 12.7675 6.97851C12.7675 6.16291 12.1943 5.71225 11.1842 5.71225ZM9.32627 9.37741V12.2703H11.2524C12.5122 12.2703 13.1785 11.7643 13.1785 10.8142C13.1785 9.86493 12.4938 9.37741 11.1713 9.37741H9.32627Z" fill="#F7F7F7"/>
</svg>
