<svg xmlns="http://www.w3.org/2000/svg" width="16" height="15" viewBox="0 0 16 15" fill="none">
  <mask id="mask0_487_52" style="mask-type:luminance" maskUnits="userSpaceOnUse" x="0" y="0" width="16" height="15">
    <path d="M0.94455 0.370361H15.2038V14.6296H0.94455V0.370361Z" fill="white"/>
  </mask>
  <g mask="url(#mask0_487_52)">
    <path d="M14.8645 0.370363H1.28321C1.23868 0.370363 1.1946 0.379143 1.15347 0.396199C1.11234 0.413255 1.07498 0.438253 1.04353 0.469764C1.01208 0.501274 0.987142 0.538677 0.970158 0.579833C0.953174 0.62099 0.944472 0.665091 0.94455 0.709614V14.2909C0.944472 14.3355 0.953193 14.3796 0.970215 14.4208C0.987236 14.462 1.01222 14.4995 1.04374 14.531C1.07526 14.5625 1.11269 14.5875 1.15388 14.6045C1.19508 14.6215 1.23923 14.6303 1.2838 14.6302H14.8651C14.9097 14.6303 14.9538 14.6215 14.995 14.6045C15.0362 14.5875 15.0737 14.5625 15.1052 14.531C15.1367 14.4995 15.1617 14.462 15.1787 14.4208C15.1957 14.3796 15.2044 14.3355 15.2044 14.2909V0.70902C15.2044 0.664447 15.1956 0.620312 15.1785 0.579147C15.1614 0.537981 15.1363 0.500595 15.1047 0.469132C15.0732 0.43767 15.0357 0.412749 14.9945 0.3958C14.9533 0.378851 14.9091 0.370207 14.8645 0.370363ZM9.43235 7.99073H7.73491V13.2714H6.37672V7.99073H4.67928V6.82088H9.43235V7.99073ZM9.81259 12.9696V11.5585C9.81259 11.5585 10.5838 12.1396 11.5088 12.1396C12.4339 12.1396 12.3983 11.5347 12.3983 11.4516C12.3983 10.574 9.77695 10.574 9.77695 8.62883C9.77695 5.98374 13.5966 7.02764 13.5966 7.02764L13.5491 8.28482C13.5491 8.28482 12.9086 7.85764 12.185 7.85764C11.4613 7.85764 11.2005 8.20224 11.2005 8.56941C11.2005 9.51825 13.8456 9.42378 13.8456 11.3333C13.8456 14.2743 9.81259 12.9702 9.81259 12.9702" fill="#212529"/>
  </g>
</svg>