<svg width="16" height="16" viewBox="0 0 16 16" fill="none" xmlns="http://www.w3.org/2000/svg">
<path d="M5.3693 7.34819L5.68955 1.93338C5.6921 1.89101 5.70866 1.85069 5.73662 1.81876C5.76459 1.78683 5.80238 1.7651 5.84404 1.757L11.0556 0.735582C11.0878 0.729261 11.121 0.731318 11.1522 0.741556C11.1834 0.751793 11.2114 0.769867 11.2335 0.794044C11.2557 0.81822 11.2713 0.847688 11.2788 0.87962C11.2863 0.911551 11.2854 0.944875 11.2764 0.976393L10.3019 4.35588C10.2928 4.38734 10.292 4.42059 10.2995 4.45246C10.3069 4.48433 10.3225 4.51374 10.3446 4.5379C10.3666 4.56206 10.3946 4.58015 10.4256 4.59044C10.4567 4.60073 10.4899 4.60289 10.522 4.59669L12.0157 4.30897C12.0508 4.3021 12.0872 4.30522 12.1207 4.31799C12.1541 4.33076 12.1833 4.35265 12.205 4.38119C12.2266 4.40973 12.2398 4.44377 12.243 4.47943C12.2463 4.51509 12.2395 4.55095 12.2233 4.58293L7.97632 13.0582L7.89938 13.1771C7.88258 13.2037 7.85932 13.2257 7.83178 13.241C7.80423 13.2563 7.77327 13.2645 7.74176 13.2646C7.63105 13.2646 7.52284 13.1696 7.55099 13.0338L8.23589 9.71815C8.24261 9.68567 8.24078 9.65201 8.23058 9.62045C8.22037 9.58889 8.20214 9.56053 8.17767 9.53814C8.1532 9.51575 8.12333 9.50011 8.09099 9.49274C8.05866 9.48537 8.02496 9.48653 7.9932 9.4961L7.09689 9.76819C7.06515 9.77786 7.03145 9.77912 6.99909 9.77184C6.96672 9.76456 6.93681 9.74899 6.91227 9.72666C6.88774 9.70433 6.86943 9.67601 6.85914 9.64448C6.84885 9.61294 6.84693 9.57927 6.85357 9.54677L7.28516 7.43576C7.2917 7.40424 7.29019 7.37158 7.28076 7.34081C7.27134 7.31003 7.2543 7.28212 7.23123 7.25967C7.20816 7.23723 7.17979 7.22096 7.14877 7.21238C7.11774 7.2038 7.08505 7.20318 7.05373 7.21059L5.60261 7.54585C5.57364 7.5525 5.54353 7.55232 5.51465 7.54532C5.48577 7.53832 5.45892 7.52469 5.43622 7.50551C5.41352 7.48633 5.3956 7.46213 5.38388 7.43482C5.37215 7.40752 5.36695 7.37786 5.36867 7.34819H5.3693ZM14.7365 2.39061L10.9974 3.07114L10.6571 4.25143L11.9563 4.00123C12.0569 3.98116 12.1614 3.99254 12.2553 4.03383C12.3493 4.07512 12.4283 4.14432 12.4817 4.23204C12.5269 4.30499 12.5527 4.38836 12.5564 4.47413C12.5601 4.5599 12.5417 4.64519 12.5029 4.72179L8.25528 13.1977L8.24715 13.2134L8.23777 13.2277L8.16146 13.3466C8.11639 13.4173 8.05429 13.4755 7.98084 13.516C7.9074 13.5564 7.82497 13.5777 7.74113 13.578C7.66525 13.5774 7.59041 13.5602 7.52189 13.5276C7.45338 13.4949 7.39285 13.4477 7.34458 13.3891C7.29773 13.3311 7.26444 13.2634 7.24712 13.1909C7.22981 13.1184 7.22891 13.0429 7.2445 12.97L7.88812 9.85451L7.18758 10.0672C7.09176 10.096 6.98953 10.0959 6.8938 10.0667C6.79807 10.0375 6.71312 9.98068 6.64966 9.90329C6.60228 9.84557 6.56842 9.77797 6.55056 9.70546C6.5327 9.63294 6.5313 9.55735 6.54646 9.48422L6.94052 7.55773L5.67266 7.85046C5.58683 7.86999 5.49739 7.86682 5.41316 7.84127C5.32892 7.81571 5.2528 7.76865 5.19229 7.70472C5.14513 7.65482 5.10874 7.59576 5.08539 7.53119C5.06204 7.46663 5.05223 7.39795 5.05656 7.32943L5.29987 3.22L0.646274 2.38811C0.574574 2.37517 0.50067 2.38296 0.433245 2.41057C0.365819 2.43818 0.307673 2.48445 0.265636 2.54396C0.223599 2.60347 0.199418 2.67374 0.195934 2.74651C0.192449 2.81929 0.209806 2.89155 0.245964 2.9548L7.42964 15.5502C7.4632 15.6091 7.51182 15.6581 7.57053 15.6921C7.62924 15.7261 7.69592 15.7438 7.76376 15.7436C7.83159 15.7433 7.89814 15.7251 7.95659 15.6906C8.01504 15.6562 8.06329 15.6069 8.09641 15.5477L15.1394 2.95355C15.1747 2.89018 15.1912 2.81809 15.1871 2.74567C15.1831 2.67325 15.1585 2.60348 15.1163 2.54449C15.074 2.4855 15.0159 2.43972 14.9487 2.41247C14.8815 2.38523 14.8079 2.37765 14.7365 2.39061Z" fill="white"/>
</svg>
