<svg width="15" height="15" viewBox="0 0 15 15" fill="none" xmlns="http://www.w3.org/2000/svg">
<mask id="mask0_429_1191" style="mask-type:luminance" maskUnits="userSpaceOnUse" x="0" y="0" width="15" height="15">
<path d="M0.197449 0.732056H14.4567V14.9913H0.197449V0.732056Z" fill="white"/>
</mask>
<g mask="url(#mask0_429_1191)">
<path d="M14.1174 0.732058H0.536106C0.491583 0.732058 0.447497 0.740837 0.40637 0.757893C0.365244 0.774949 0.327884 0.799948 0.296429 0.831458C0.264974 0.862968 0.240041 0.900371 0.223057 0.941528C0.206073 0.982684 0.197371 1.02679 0.197449 1.07131V14.6526C0.197371 14.6972 0.206093 14.7413 0.223114 14.7825C0.240135 14.8237 0.265121 14.8612 0.296639 14.8927C0.328157 14.9242 0.365587 14.9492 0.406782 14.9662C0.447977 14.9832 0.492127 14.9919 0.5367 14.9919H14.118C14.1626 14.9919 14.2067 14.9832 14.2479 14.9662C14.2891 14.9492 14.3266 14.9242 14.3581 14.8927C14.3896 14.8612 14.4146 14.8237 14.4316 14.7825C14.4486 14.7413 14.4573 14.6972 14.4573 14.6526V1.07071C14.4573 1.02614 14.4485 0.982006 14.4314 0.940841C14.4143 0.899676 14.3892 0.86229 14.3576 0.830827C14.3261 0.799364 14.2886 0.774444 14.2474 0.757495C14.2062 0.740546 14.162 0.731901 14.1174 0.732058ZM8.68525 8.35242H6.98781V13.6331H5.62962V8.35242H3.93218V7.18257H8.68525V8.35242ZM9.06549 13.3313V11.9202C9.06549 11.9202 9.83668 12.5013 10.7617 12.5013C11.6868 12.5013 11.6512 11.8964 11.6512 11.8133C11.6512 10.9357 9.02985 10.9357 9.02985 8.99052C9.02985 6.34544 12.8495 7.38933 12.8495 7.38933L12.802 8.64652C12.802 8.64652 12.1615 8.21934 11.4379 8.21934C10.7142 8.21934 10.4534 8.56393 10.4534 8.93111C10.4534 9.87994 13.0985 9.78547 13.0985 11.695C13.0985 14.636 9.06549 13.3319 9.06549 13.3319" fill="white"/>
</g>
</svg>
