<svg width="15" height="25" viewBox="0 0 15 25" fill="none" xmlns="http://www.w3.org/2000/svg">
<path d="M0.952271 5.5H14.9523V19.5H0.952271V5.5ZM8.54602 16.4375V11.9375H7.23352V16.4062C7.23352 17.0625 6.95227 17.25 6.54602 17.25C6.07727 17.25 5.88977 16.9375 5.70227 16.5625L4.60852 17.2188C4.92102 17.875 5.54602 18.4062 6.57727 18.4062C7.76477 18.4062 8.54602 17.7812 8.54602 16.4375ZM11.671 18.4062C12.921 18.4062 13.8585 17.7812 13.8585 16.5938C13.8585 15.5 13.2335 15 12.1085 14.5312L11.7648 14.375C11.2023 14.125 10.9523 13.9688 10.9523 13.5625C10.9523 13.25 11.2023 13 11.5773 13C11.9835 13 12.2023 13.1875 12.4523 13.5625L13.4523 12.9062C13.046 12.1562 12.421 11.875 11.6085 11.875C10.421 11.875 9.67102 12.625 9.67102 13.5938C9.67102 14.6875 10.296 15.1875 11.2335 15.5938L11.5773 15.7188C12.171 16 12.546 16.1562 12.546 16.5938C12.546 16.9688 12.171 17.25 11.6398 17.25C10.9835 17.25 10.6398 16.9062 10.3585 16.4688L9.26477 17.0625C9.67102 17.8438 10.4523 18.4062 11.671 18.4062Z" fill="#212529"/>
</svg>
