<svg width="14" height="24" viewBox="0 0 14 24" fill="none" xmlns="http://www.w3.org/2000/svg">
<path d="M0 4.99127H14V18.9913H0V4.99127ZM7.59375 15.9288V11.4288H6.28125V15.8975C6.28125 16.5538 6 16.7413 5.59375 16.7413C5.125 16.7413 4.9375 16.4288 4.75 16.0538L3.65625 16.71C3.96875 17.3663 4.59375 17.8975 5.625 17.8975C6.8125 17.8975 7.59375 17.2725 7.59375 15.9288ZM10.7188 17.8975C11.9688 17.8975 12.9062 17.2725 12.9062 16.085C12.9062 14.9913 12.2812 14.4913 11.1562 14.0225L10.8125 13.8663C10.25 13.6163 10 13.46 10 13.0538C10 12.7413 10.25 12.4913 10.625 12.4913C11.0312 12.4913 11.25 12.6788 11.5 13.0538L12.5 12.3975C12.0938 11.6475 11.4688 11.3663 10.6562 11.3663C9.46875 11.3663 8.71875 12.1163 8.71875 13.085C8.71875 14.1788 9.34375 14.6788 10.2812 15.085L10.625 15.21C11.2188 15.4913 11.5938 15.6475 11.5938 16.085C11.5938 16.46 11.2188 16.7413 10.6875 16.7413C10.0312 16.7413 9.6875 16.3975 9.40625 15.96L8.3125 16.5538C8.71875 17.335 9.5 17.8975 10.7188 17.8975Z" fill="white"/>
</svg>
