<svg xmlns="http://www.w3.org/2000/svg" width="21" height="13" viewBox="0 0 21 13" fill="none">
  <path d="M10.9523 0.5C8.28227 0.5 6.62227 1.83 5.95227 4.5C6.95227 3.17 8.12227 2.67 9.45227 3C10.2123 3.19 10.7623 3.74 11.3623 4.35C12.3423 5.35 13.4523 6.5 15.9523 6.5C18.6223 6.5 20.2823 5.17 20.9523 2.5C19.9523 3.83 18.7823 4.33 17.4523 4C16.6923 3.81 16.1523 3.26 15.5423 2.65C14.5623 1.65 13.4523 0.5 10.9523 0.5ZM5.95227 6.5C3.28227 6.5 1.62227 7.83 0.952271 10.5C1.95227 9.17 3.12227 8.67 4.45227 9C5.21227 9.19 5.75227 9.74 6.36227 10.35C7.34227 11.35 8.45227 12.5 10.9523 12.5C13.6223 12.5 15.2823 11.17 15.9523 8.5C14.9523 9.83 13.7823 10.33 12.4523 10C11.6923 9.81 11.1523 9.26 10.5423 8.65C9.56227 7.65 8.45227 6.5 5.95227 6.5Z" fill="#212529"/>
</svg>