<svg xmlns="http://www.w3.org/2000/svg" width="16" height="15" viewBox="0 0 16 15" fill="none">
  <path d="M6.12611 6.6104L6.44635 1.19559C6.4489 1.15322 6.46546 1.1129 6.49343 1.08097C6.5214 1.04904 6.55918 1.02731 6.60085 1.0192L11.8124 -0.0022111C11.8446 -0.00853181 11.8778 -0.0064748 11.909 0.00376256C11.9402 0.0139999 11.9682 0.0320741 11.9903 0.0562507C12.0125 0.0804274 12.0281 0.109895 12.0356 0.141827C12.0431 0.173758 12.0423 0.207082 12.0332 0.2386L11.0587 3.61809C11.0496 3.64955 11.0488 3.6828 11.0563 3.71467C11.0638 3.74653 11.0793 3.77595 11.1014 3.80011C11.1234 3.82427 11.1514 3.84236 11.1824 3.85265C11.2135 3.86294 11.2467 3.86509 11.2788 3.8589L12.7725 3.57118C12.8076 3.5643 12.844 3.56743 12.8775 3.5802C12.9109 3.59296 12.9401 3.61486 12.9618 3.6434C12.9834 3.67194 12.9966 3.70597 12.9998 3.74164C13.0031 3.7773 12.9963 3.81316 12.9802 3.84514L8.73312 12.3204L8.65619 12.4393C8.63938 12.4659 8.61613 12.4879 8.58858 12.5032C8.56104 12.5185 8.53008 12.5267 8.49857 12.5269C8.38785 12.5269 8.27965 12.4318 8.30779 12.296L8.9927 8.98036C8.99942 8.94788 8.99759 8.91421 8.98738 8.88266C8.97718 8.8511 8.95894 8.82274 8.93447 8.80035C8.91 8.77796 8.88014 8.76231 8.8478 8.75494C8.81546 8.74757 8.78176 8.74874 8.75001 8.75831L7.85369 9.0304C7.82196 9.04007 7.78826 9.04132 7.75589 9.03404C7.72353 9.02676 7.69361 9.0112 7.66908 8.98887C7.64454 8.96654 7.62623 8.93822 7.61594 8.90668C7.60565 8.87515 7.60373 8.84148 7.61038 8.80898L8.04196 6.69797C8.04851 6.66645 8.04699 6.63379 8.03757 6.60301C8.02814 6.57223 8.0111 6.54433 7.98803 6.52188C7.96496 6.49943 7.9366 6.48317 7.90557 6.47459C7.87455 6.46601 7.84186 6.46539 7.81053 6.47279L6.35941 6.80805C6.33045 6.81471 6.30034 6.81453 6.27146 6.80752C6.24258 6.80052 6.21573 6.78689 6.19303 6.76771C6.17033 6.74854 6.15241 6.72434 6.14068 6.69703C6.12896 6.66973 6.12375 6.64007 6.12548 6.6104H6.12611ZM15.4933 1.65282L11.7542 2.33334L11.4139 3.51363L12.7131 3.26344C12.8137 3.24337 12.9182 3.25475 13.0121 3.29604C13.1061 3.33733 13.1852 3.40652 13.2385 3.49424C13.2837 3.56719 13.3095 3.65057 13.3132 3.73634C13.3169 3.82211 13.2985 3.90739 13.2597 3.984L9.01209 12.4599L9.00396 12.4756L8.99457 12.4899L8.91826 12.6088C8.8732 12.6795 8.81109 12.7377 8.73765 12.7782C8.66421 12.8186 8.58178 12.8399 8.49794 12.8402C8.42205 12.8396 8.34721 12.8224 8.2787 12.7898C8.21018 12.7571 8.14966 12.7099 8.10138 12.6513C8.05454 12.5933 8.02124 12.5256 8.00393 12.4531C7.98661 12.3806 7.98572 12.3051 8.00131 12.2322L8.64493 9.11671L7.94439 9.32938C7.84856 9.35824 7.74634 9.35808 7.65061 9.32892C7.55487 9.29975 7.46992 9.24289 7.40647 9.1655C7.35909 9.10778 7.32522 9.04018 7.30736 8.96766C7.28951 8.89515 7.28811 8.81955 7.30327 8.74643L7.69732 6.81994L6.42946 7.11266C6.34363 7.1322 6.2542 7.12903 6.16996 7.10347C6.08573 7.07792 6.0096 7.03086 5.94909 6.96693C5.90193 6.91703 5.86555 6.85796 5.8422 6.7934C5.81885 6.72883 5.80903 6.66016 5.81336 6.59164L6.05668 2.48221L1.40308 1.65032C1.33138 1.63738 1.25748 1.64517 1.19005 1.67278C1.12262 1.70038 1.06448 1.74666 1.02244 1.80617C0.980405 1.86568 0.956224 1.93594 0.952739 2.00872C0.949255 2.08149 0.966611 2.15375 1.00277 2.217L8.18645 14.8124C8.22001 14.8713 8.26863 14.9203 8.32733 14.9543C8.38604 14.9883 8.45273 15.0061 8.52056 15.0058C8.5884 15.0055 8.65495 14.9873 8.7134 14.9528C8.77185 14.9184 8.8201 14.8691 8.85321 14.8099L15.8962 2.21575C15.9315 2.15239 15.948 2.0803 15.9439 2.00787C15.9399 1.93545 15.9153 1.86568 15.8731 1.80669C15.8309 1.7477 15.7728 1.70192 15.7055 1.67468C15.6383 1.64744 15.5647 1.63986 15.4933 1.65282Z" fill="#212529"/>
</svg>