<svg width="13" height="14" viewBox="0 0 13 14" fill="none" xmlns="http://www.w3.org/2000/svg">
<path d="M6.49903 8.30281C6.26682 8.4095 6.01239 8.54854 5.50306 8.82807C5.30995 8.9367 5.10815 9.04533 4.92035 9.14767C4.90731 9.13464 4.89379 9.11823 4.88076 9.10471C3.8732 8.02811 2.00967 7.26773 2.08884 5.8218C2.11829 5.29509 2.29933 3.91241 5.66769 2.2333C8.43981 0.867036 10.6456 1.24554 11.0265 2.08509C11.574 3.2819 9.84422 5.50896 6.98133 5.83194C6.66448 5.89618 6.33724 5.8884 6.0238 5.80918C5.71035 5.72996 5.41871 5.58133 5.17042 5.37427C5.01883 5.20964 4.99614 5.19998 4.94014 5.23281C4.84793 5.28109 4.90731 5.43027 4.94014 5.51572C5.04934 5.71344 5.19708 5.88726 5.37462 6.0269C5.55216 6.16654 5.75589 6.26917 5.97377 6.32872C7.10039 6.57224 8.27503 6.45589 9.33199 5.99609C11.0671 5.32454 12.4218 3.45763 12.0249 1.89246C11.6266 0.305563 8.99259 -0.21777 6.50048 0.667648C4.93979 1.19359 3.49785 2.02151 2.25685 3.10424C0.883824 4.38843 0.666573 5.50462 0.755404 5.97195C1.075 7.63126 3.36242 8.71124 4.2797 9.51121C4.23206 9.53695 4.19038 9.55997 4.15466 9.58025C3.69698 9.80763 1.95222 10.7196 1.51723 11.6842C1.02335 12.7772 1.59641 13.5608 1.97491 13.666C2.5453 13.8028 3.14418 13.7579 3.68785 13.5377C4.23152 13.3175 4.6928 12.933 5.00725 12.4378C5.27436 12.0273 5.43838 11.5583 5.48536 11.0708C5.53235 10.5833 5.46091 10.0917 5.27712 9.6377C5.38551 9.55114 5.50116 9.4741 5.62279 9.40741C5.85646 9.26933 6.07902 9.13319 6.27647 9.02794C6.95268 8.71165 7.69039 8.54861 8.43691 8.55048C10.004 8.7349 10.3135 9.71253 10.2541 10.1243C10.2262 10.2704 10.1674 10.4088 10.0817 10.5303C9.99591 10.6518 9.88515 10.7536 9.75683 10.8287C9.64821 10.8977 9.612 10.9209 9.62165 10.9702C9.63469 11.0426 9.68731 11.0392 9.77952 11.0262C10.015 10.9518 10.2224 10.8079 10.3746 10.6134C10.5267 10.4189 10.6165 10.183 10.6321 9.93654C10.6804 8.97098 9.75973 7.91176 8.12987 7.92141C7.64189 7.92283 7.15885 8.01908 6.7076 8.20481C6.63518 8.23474 6.56485 8.26692 6.49662 8.30136L6.49903 8.30281ZM4.16962 12.0873C3.64919 12.6536 2.92502 12.8675 2.61218 12.6865C2.27423 12.4933 2.40796 11.6557 3.04668 11.0566C3.42465 10.7154 3.83356 10.4101 4.26811 10.1446C4.34391 10.0963 4.45591 10.0326 4.59061 9.9515L4.62682 9.93171L4.70599 9.88343C4.8198 10.2654 4.83012 10.6707 4.73588 11.0579C4.64163 11.4451 4.44622 11.8004 4.16962 12.0873Z" fill="white"/>
</svg>
