<svg width="26" height="6" viewBox="0 0 26 6" fill="none" xmlns="http://www.w3.org/2000/svg">
<path d="M0.75708 0.523193V5.45135H1.60299V1.57647L4.72264 5.45326H10.0204V4.66647H6.60174V3.36546H9.35065V2.57866H6.60174V1.3121H10.0202V0.524724H5.75563V1.3121H5.75602V5.41692L1.81437 0.523193H0.75708ZM17.0344 0.525107V1.31229H18.7618V5.45384H19.6074V1.31229H21.2997V0.524915H17.0344V0.525107ZM11.0427 0.527211L15.0082 5.45575H16.1183L14.1355 2.9932L16.1154 0.531037L15.0078 0.532949L13.581 2.30454L12.1501 0.527402H11.0425L11.0427 0.527211ZM24.4636 3.31974C24.318 3.31974 24.1872 3.34423 24.0712 3.39511C23.9561 3.44543 23.865 3.5162 23.7984 3.60707C23.7315 3.69813 23.698 3.80449 23.698 3.92539C23.698 4.07268 23.7474 4.19014 23.8472 4.27871C23.9461 4.36747 24.0819 4.43347 24.2535 4.47689L24.4907 4.53658C24.5577 4.55281 24.6233 4.57417 24.687 4.60047C24.7365 4.62001 24.7811 4.6501 24.8177 4.68866C24.8494 4.72573 24.8663 4.77321 24.8651 4.82199C24.8656 4.87795 24.8464 4.93231 24.811 4.9756C24.7725 5.02206 24.7223 5.05739 24.6656 5.07794C24.5963 5.10352 24.5229 5.11597 24.449 5.11467C24.3764 5.11567 24.3041 5.10388 24.2356 5.07985C24.1759 5.05835 24.1229 5.02162 24.0818 4.9733C24.0413 4.92241 24.0177 4.86014 24.0144 4.79521H23.6431C23.6483 4.93103 23.6844 5.04695 23.7514 5.14183C23.8183 5.23672 23.9113 5.30884 24.0307 5.358C24.1493 5.40774 24.2903 5.4326 24.4519 5.4326C24.6193 5.4326 24.7616 5.40659 24.8791 5.35609C24.9971 5.30444 25.0872 5.23308 25.1496 5.14222C25.2121 5.05059 25.2429 4.94557 25.2429 4.82505C25.2429 4.73591 25.2257 4.65824 25.192 4.59224C25.1586 4.52659 25.1117 4.46876 25.0543 4.42256C24.9946 4.37475 24.9284 4.33565 24.8577 4.30645C24.7841 4.27524 24.7079 4.25059 24.63 4.2328L24.4349 4.18497C24.3918 4.17467 24.3492 4.16222 24.3073 4.14767C24.2672 4.13404 24.2289 4.11574 24.1931 4.09315C24.1598 4.07325 24.1317 4.04587 24.1108 4.01319C24.09 3.98 24.0795 3.9414 24.0806 3.90224C24.0808 3.85283 24.0967 3.80477 24.1261 3.76508C24.156 3.72491 24.1998 3.69315 24.2558 3.66943C24.3202 3.64466 24.3889 3.63271 24.4578 3.63423C24.5698 3.63423 24.661 3.65834 24.7314 3.7075C24.7654 3.73045 24.7938 3.76077 24.8144 3.79621C24.835 3.83165 24.8474 3.8713 24.8506 3.91219H25.214C25.214 3.80202 25.1797 3.69458 25.1159 3.60477C25.0522 3.51563 24.9644 3.44543 24.8525 3.39511C24.7408 3.34442 24.6115 3.31974 24.4636 3.31974ZM22.9336 3.34729V4.79157C22.933 4.86369 22.9217 4.9249 22.8999 4.97407C22.8803 5.0206 22.8464 5.0597 22.8031 5.08578C22.7614 5.11123 22.7098 5.12404 22.6495 5.12404C22.594 5.12404 22.5451 5.11314 22.502 5.09152C22.4605 5.07117 22.4258 5.03921 22.4022 4.99951C22.3772 4.95587 22.3643 4.90633 22.3649 4.85604H21.9894C21.9894 4.98249 22.0175 5.08808 22.0749 5.17282C22.1319 5.25776 22.2124 5.32434 22.3065 5.3645C22.4104 5.40898 22.5225 5.43114 22.6356 5.42954C22.7689 5.42954 22.8863 5.40391 22.9866 5.35302C23.085 5.30416 23.1671 5.22781 23.223 5.13323C23.2791 5.03777 23.308 4.92414 23.3087 4.79138V3.34729H22.9336ZM12.7314 3.35858L11.0396 5.45939H12.1501L13.2858 4.04762L12.7314 3.35858ZM21.4899 4.98421C21.4279 4.98421 21.3751 5.00563 21.3311 5.04848C21.3099 5.0681 21.293 5.09201 21.2817 5.11862C21.2703 5.14523 21.2647 5.17394 21.2653 5.20286C21.2646 5.23211 21.2701 5.26118 21.2814 5.28815C21.2928 5.31513 21.3097 5.33939 21.3311 5.35934C21.3751 5.40238 21.4279 5.42361 21.4899 5.42361C21.5285 5.42389 21.5665 5.41357 21.5997 5.39377C21.6333 5.37456 21.6614 5.34719 21.6816 5.31419C21.7022 5.28072 21.7132 5.24219 21.7133 5.20286C21.7133 5.17384 21.7073 5.14514 21.6956 5.11857C21.684 5.092 21.667 5.06813 21.6456 5.04848C21.6253 5.02792 21.601 5.01164 21.5742 5.0006C21.5475 4.98956 21.5188 4.98398 21.4899 4.98421Z" fill="#F7F7F7"/>
</svg>
