<svg width="23" height="22" viewBox="0 0 23 22" fill="none" xmlns="http://www.w3.org/2000/svg">
<path d="M16.5 1H6.5C3.73858 1 1.5 3.23858 1.5 6V16C1.5 18.7614 3.73858 21 6.5 21H16.5C19.2614 21 21.5 18.7614 21.5 16V6C21.5 3.23858 19.2614 1 16.5 1Z" stroke="#F8F9FA" stroke-width="1.5" stroke-linecap="round" stroke-linejoin="round"/>
<path d="M15.5 10.3701C15.6234 11.2023 15.4813 12.0523 15.0938 12.7991C14.7063 13.5459 14.0932 14.1515 13.3416 14.5297C12.5901 14.908 11.7385 15.0397 10.9078 14.906C10.0771 14.7723 9.30977 14.3801 8.71485 13.7852C8.11993 13.1903 7.72774 12.4229 7.59408 11.5923C7.46042 10.7616 7.59208 9.90995 7.97034 9.15843C8.3486 8.40691 8.9542 7.7938 9.701 7.4063C10.4478 7.0188 11.2978 6.87665 12.13 7.00006C12.9789 7.12594 13.7649 7.52152 14.3717 8.12836C14.9785 8.73521 15.3741 9.52113 15.5 10.3701Z" stroke="#F8F9FA" stroke-width="1.5" stroke-linecap="round" stroke-linejoin="round"/>
<path d="M17 5.5H17.01" stroke="#F8F9FA" stroke-width="1.5" stroke-linecap="round" stroke-linejoin="round"/>
</svg>
