<svg width="18" height="18" viewBox="0 0 18 18" fill="none" xmlns="http://www.w3.org/2000/svg">
<path d="M11.8947 6.1579C13.151 6.1579 14.3559 6.65696 15.2442 7.54529C16.1325 8.43362 16.6316 9.63845 16.6316 10.8947V16.4211H13.4737V10.8947C13.4737 10.476 13.3073 10.0744 13.0112 9.77826C12.7151 9.48215 12.3135 9.31579 11.8947 9.31579C11.476 9.31579 11.0744 9.48215 10.7783 9.77826C10.4821 10.0744 10.3158 10.476 10.3158 10.8947V16.4211H7.1579V10.8947C7.1579 9.63845 7.65696 8.43362 8.54529 7.54529C9.43362 6.65696 10.6385 6.1579 11.8947 6.1579Z" stroke="#212529" stroke-width="1.5" stroke-linecap="round" stroke-linejoin="round"/>
<path d="M4.15789 6.94737H1V16.4211H4.15789V6.94737Z" stroke="#212529" stroke-width="1.5" stroke-linecap="round" stroke-linejoin="round"/>
<path d="M2.57895 4.15789C3.45098 4.15789 4.15789 3.45098 4.15789 2.57895C4.15789 1.70692 3.45098 1 2.57895 1C1.70692 1 1 1.70692 1 2.57895C1 3.45098 1.70692 4.15789 2.57895 4.15789Z" stroke="#212529" stroke-width="1.5" stroke-linecap="round" stroke-linejoin="round"/>
</svg>
