<svg width="166" height="19" viewBox="0 0 166 19" fill="none" xmlns="http://www.w3.org/2000/svg">
<path d="M9.92 7.91574C9.928 7.29974 9.836 6.69574 9.644 6.10374C9.46 5.50374 9.132 5.00774 8.66 4.61574C8.196 4.22374 7.548 4.02774 6.716 4.02774C5.5 4.02774 4.588 4.56774 3.98 5.64774C3.38 6.72774 3.08 8.29974 3.08 10.3637C3.08 12.2917 3.416 13.7717 4.088 14.8037C4.768 15.8357 5.712 16.3517 6.92 16.3517C7.68 16.3517 8.408 16.1917 9.104 15.8717C9.808 15.5437 10.492 15.1037 11.156 14.5517C11.452 14.7437 11.736 15.0117 12.008 15.3557C12.28 15.6997 12.456 16.0357 12.536 16.3637C12.088 16.8117 11.548 17.2197 10.916 17.5877C10.284 17.9557 9.588 18.2517 8.828 18.4757C8.068 18.6917 7.268 18.7997 6.428 18.7997C5.26 18.7997 4.272 18.5637 3.464 18.0917C2.664 17.6117 2.016 16.9677 1.52 16.1597C1.032 15.3517 0.676 14.4477 0.452 13.4477C0.236 12.4397 0.128 11.4077 0.128 10.3517C0.128 8.35174 0.432 6.71974 1.04 5.45574C1.648 4.19174 2.456 3.25974 3.464 2.65974C4.48 2.05974 5.588 1.75974 6.788 1.75974C7.988 1.75974 9.024 1.98374 9.896 2.43174C10.776 2.87174 11.452 3.45174 11.924 4.17174C12.404 4.88374 12.644 5.65974 12.644 6.49974C12.644 6.99574 12.516 7.38374 12.26 7.66374C12.004 7.94374 11.6 8.08374 11.048 8.08374C10.84 8.08374 10.648 8.07174 10.472 8.04774C10.304 8.01574 10.12 7.97174 9.92 7.91574ZM17.9718 18.4757C17.5958 18.5477 17.1438 18.5837 16.6158 18.5837C16.1358 18.5837 15.6958 18.5477 15.2958 18.4757V0.979738L15.4518 0.823738H16.4958C17.0558 0.823738 17.4398 0.959738 17.6478 1.23174C17.8638 1.49574 17.9718 1.93174 17.9718 2.53974V18.4757ZM24.8718 15.8477C24.8718 16.2717 24.8998 16.6757 24.9558 17.0597C25.0198 17.4437 25.1318 17.7757 25.2918 18.0557C25.0998 18.2237 24.8518 18.3637 24.5478 18.4757C24.2438 18.5877 23.9238 18.6437 23.5878 18.6437C23.0518 18.6437 22.6758 18.4997 22.4598 18.2117C22.2438 17.9157 22.1358 17.4837 22.1358 16.9157V11.0237C22.1358 10.2717 22.0398 9.72374 21.8478 9.37974C21.6558 9.02774 21.2838 8.85174 20.7318 8.85174C20.3638 8.85174 19.9598 8.94374 19.5198 9.12774C19.0798 9.31174 18.6598 9.57574 18.2598 9.91974C17.8598 10.2637 17.5358 10.6757 17.2878 11.1557V8.59974C17.8238 7.99174 18.4678 7.47574 19.2198 7.05174C19.9798 6.61974 20.7918 6.40374 21.6558 6.40374C22.3998 6.40374 23.0078 6.57974 23.4798 6.93174C23.9518 7.28374 24.2998 7.75974 24.5238 8.35974C24.7558 8.95974 24.8718 9.63974 24.8718 10.3997V15.8477ZM27.5465 15.2477C27.5465 14.3197 27.7505 13.5597 28.1585 12.9677C28.5745 12.3757 29.1305 11.9397 29.8265 11.6597C30.5305 11.3717 31.3105 11.2277 32.1665 11.2277C32.5985 11.2277 33.0945 11.2477 33.6545 11.2877C34.2145 11.3197 34.7345 11.3877 35.2145 11.4917V13.3037C34.8065 13.2077 34.3385 13.1477 33.8105 13.1237C33.2825 13.0917 32.8025 13.0757 32.3705 13.0757C31.6825 13.0757 31.1545 13.2557 30.7865 13.6157C30.4185 13.9677 30.2345 14.4477 30.2345 15.0557C30.2345 15.5117 30.3665 15.8957 30.6305 16.2077C30.8945 16.5197 31.2705 16.6757 31.7585 16.6757C32.3185 16.6757 32.9065 16.4797 33.5225 16.0877C34.1465 15.6957 34.6705 15.1237 35.0945 14.3717L35.5025 16.3517C35.2145 16.6957 34.8585 17.0597 34.4345 17.4437C34.0185 17.8197 33.5345 18.1397 32.9825 18.4037C32.4305 18.6677 31.8025 18.7997 31.0985 18.7997C30.2985 18.7997 29.6345 18.6237 29.1065 18.2717C28.5785 17.9117 28.1865 17.4597 27.9305 16.9157C27.6745 16.3717 27.5465 15.8157 27.5465 15.2477ZM37.7225 17.2517C37.6665 17.4997 37.5425 17.7637 37.3505 18.0437C37.1665 18.3157 36.9705 18.5197 36.7625 18.6557C36.2185 18.5757 35.7745 18.3957 35.4305 18.1157C35.0865 17.8357 34.8305 17.4997 34.6625 17.1077C34.4945 16.7077 34.3905 16.2997 34.3505 15.8837V10.5197C34.3505 9.81574 34.1865 9.30774 33.8585 8.99574C33.5385 8.67574 33.0745 8.51574 32.4665 8.51574C31.8905 8.51574 31.2825 8.60774 30.6425 8.79174C30.0105 8.96774 29.3745 9.17174 28.7345 9.40374C28.5265 9.18774 28.3545 8.89174 28.2185 8.51574C28.0825 8.13974 28.0065 7.77574 27.9905 7.42374C28.4545 7.23174 28.9785 7.05174 29.5625 6.88374C30.1465 6.71574 30.7425 6.58374 31.3505 6.48774C31.9585 6.39174 32.5345 6.34374 33.0785 6.34374C33.8465 6.34374 34.5265 6.48774 35.1185 6.77574C35.7185 7.05574 36.1905 7.49174 36.5345 8.08374C36.8785 8.67574 37.0505 9.43974 37.0505 10.3757V15.2957C37.0505 15.7197 37.0945 16.0957 37.1825 16.4237C37.2785 16.7517 37.4585 17.0277 37.7225 17.2517ZM47.63 6.58374C47.63 6.93574 47.574 7.35974 47.462 7.85574C47.358 8.34374 47.19 8.77574 46.958 9.15174C46.79 9.10374 46.618 9.07174 46.442 9.05574C46.274 9.03974 46.106 9.02374 45.938 9.00774C45.506 9.00774 45.126 9.09574 44.798 9.27174C44.478 9.44774 44.202 9.67974 43.97 9.96774C43.738 10.2477 43.534 10.5677 43.358 10.9277C43.19 11.2797 43.05 11.6357 42.938 11.9957L42.566 11.5157C42.582 10.9317 42.658 10.3437 42.794 9.75174C42.93 9.15174 43.138 8.60374 43.418 8.10774C43.698 7.60374 44.074 7.19974 44.546 6.89574C45.018 6.59174 45.598 6.43974 46.286 6.43974C46.534 6.43974 46.762 6.45174 46.97 6.47574C47.178 6.49974 47.398 6.53574 47.63 6.58374ZM39.854 7.86774C39.918 7.61974 40.042 7.35174 40.226 7.06374C40.41 6.77574 40.602 6.56374 40.802 6.42774C41.666 6.57974 42.31 6.98374 42.734 7.63974C43.158 8.28774 43.402 9.11174 43.466 10.1117V18.4757C43.282 18.5077 43.07 18.5317 42.83 18.5477C42.598 18.5717 42.358 18.5837 42.11 18.5837C41.87 18.5837 41.63 18.5717 41.39 18.5477C41.15 18.5317 40.934 18.5077 40.742 18.4757V10.3397C40.742 9.68374 40.646 9.15174 40.454 8.74374C40.262 8.33574 40.062 8.04374 39.854 7.86774ZM53.9546 16.4357C54.0186 16.6357 54.0706 16.8557 54.1106 17.0957C54.1586 17.3277 54.1826 17.5597 54.1826 17.7917C54.1826 17.8957 54.1786 17.9997 54.1706 18.1037C54.1626 18.2077 54.1426 18.3037 54.1106 18.3917C53.8226 18.4397 53.4826 18.4837 53.0906 18.5237C52.6986 18.5637 52.3226 18.5837 51.9626 18.5837C51.1306 18.5837 50.5066 18.3677 50.0906 17.9357C49.6826 17.4957 49.4786 16.8317 49.4786 15.9437V0.979738L49.6346 0.823738H50.6786C51.2386 0.823738 51.6226 0.959738 51.8306 1.23174C52.0386 1.49574 52.1426 1.93174 52.1426 2.53974V15.3677C52.1426 16.0797 52.4666 16.4357 53.1146 16.4357H53.9546ZM57.3526 13.4117V11.4557H62.9206V11.1437C62.9206 10.6237 62.8446 10.1477 62.6926 9.71574C62.5486 9.28374 62.3126 8.93574 61.9846 8.67174C61.6646 8.40774 61.2366 8.27574 60.7006 8.27574C59.9326 8.27574 59.3606 8.59974 58.9846 9.24774C58.6166 9.89574 58.4326 10.7997 58.4326 11.9597V12.7997C58.4326 13.5037 58.5006 14.1477 58.6366 14.7317C58.7806 15.3077 59.0446 15.7637 59.4286 16.0997C59.8126 16.4357 60.3606 16.6037 61.0726 16.6037C61.6726 16.6037 62.2486 16.5237 62.8006 16.3637C63.3526 16.1957 63.8766 15.9837 64.3726 15.7277C64.5966 15.9437 64.7806 16.2157 64.9246 16.5437C65.0686 16.8637 65.1606 17.1637 65.2006 17.4437C64.6166 17.8597 63.9206 18.1917 63.1126 18.4397C62.3126 18.6797 61.4926 18.7997 60.6526 18.7997C59.6846 18.7997 58.8766 18.6317 58.2286 18.2957C57.5806 17.9517 57.0646 17.4877 56.6806 16.9037C56.3046 16.3117 56.0366 15.6437 55.8766 14.8997C55.7166 14.1557 55.6366 13.3797 55.6366 12.5717C55.6366 11.3797 55.8206 10.3077 56.1886 9.35574C56.5566 8.40374 57.1166 7.65574 57.8686 7.11174C58.6206 6.55974 59.5686 6.28374 60.7126 6.28374C61.7526 6.28374 62.6286 6.51174 63.3406 6.96774C64.0606 7.41574 64.6046 8.02774 64.9726 8.80374C65.3406 9.57174 65.5246 10.4317 65.5246 11.3837C65.5246 11.7997 65.5086 12.1557 65.4766 12.4517C65.4446 12.7397 65.3886 13.0597 65.3086 13.4117H57.3526ZM67.3012 17.5997C67.3172 17.3037 67.4092 16.9717 67.5772 16.6037C67.7452 16.2277 67.9412 15.9317 68.1652 15.7157C68.6772 15.9877 69.2172 16.2317 69.7852 16.4477C70.3612 16.6637 70.9412 16.7717 71.5252 16.7717C72.1412 16.7717 72.6252 16.6437 72.9772 16.3877C73.3372 16.1237 73.5212 15.7957 73.5292 15.4037C73.5292 15.0837 73.4092 14.7917 73.1692 14.5277C72.9292 14.2557 72.5732 14.0357 72.1012 13.8677L70.7212 13.3637C70.1692 13.1637 69.6612 12.9117 69.1972 12.6077C68.7412 12.3037 68.3732 11.9317 68.0932 11.4917C67.8212 11.0437 67.6852 10.5157 67.6852 9.90774C67.6852 9.15574 67.8732 8.51174 68.2492 7.97574C68.6252 7.43174 69.1372 7.01574 69.7852 6.72774C70.4412 6.43174 71.1812 6.28374 72.0052 6.28374C72.6772 6.28374 73.3892 6.37174 74.1412 6.54774C74.8932 6.72374 75.5212 6.93174 76.0252 7.17174C76.0332 7.39574 76.0052 7.63974 75.9412 7.90374C75.8772 8.15974 75.7812 8.39974 75.6532 8.62374C75.5332 8.83974 75.3932 9.01574 75.2332 9.15174C74.8012 8.95174 74.3012 8.76774 73.7332 8.59974C73.1732 8.42374 72.5972 8.33574 72.0052 8.33574C71.5252 8.33574 71.1412 8.45574 70.8532 8.69574C70.5652 8.92774 70.4212 9.23174 70.4212 9.60774C70.4212 9.91974 70.5332 10.1797 70.7572 10.3877C70.9812 10.5957 71.3252 10.7837 71.7892 10.9517L73.2652 11.4917C74.1692 11.8197 74.9092 12.2757 75.4852 12.8597C76.0612 13.4437 76.3492 14.2117 76.3492 15.1637C76.3492 16.2837 75.9092 17.1717 75.0292 17.8277C74.1572 18.4757 72.9972 18.7997 71.5492 18.7997C70.7012 18.7997 69.9132 18.6797 69.1852 18.4397C68.4572 18.1997 67.8292 17.9197 67.3012 17.5997ZM88.2341 2.08374C88.4581 2.05174 88.7261 2.02774 89.0381 2.01174C89.3581 1.98774 89.6341 1.97574 89.8661 1.97574C90.0821 1.97574 90.3501 1.98774 90.6701 2.01174C90.9901 2.02774 91.2501 2.05574 91.4501 2.09574L96.7901 18.2957C96.5901 18.4157 96.3421 18.5037 96.0461 18.5597C95.7501 18.6237 95.4581 18.6557 95.1701 18.6557C94.7221 18.6557 94.3741 18.5557 94.1261 18.3557C93.8781 18.1477 93.6661 17.7477 93.4901 17.1557L91.0301 9.25974C90.8141 8.56374 90.5901 7.81174 90.3581 7.00374C90.1341 6.19574 89.9301 5.45974 89.7461 4.79574H89.6141C89.5341 5.17174 89.4341 5.58374 89.3141 6.03174C89.2021 6.47974 89.0861 6.91974 88.9661 7.35174C88.8461 7.78374 88.7381 8.15974 88.6421 8.47974L85.4981 18.4997C85.3221 18.5397 85.1301 18.5677 84.9221 18.5837C84.7221 18.5997 84.5101 18.6077 84.2861 18.6077C84.0541 18.6077 83.8141 18.5877 83.5661 18.5477C83.3181 18.5157 83.1061 18.4717 82.9301 18.4157L82.8341 18.2717L88.2341 2.08374ZM88.0301 14.6237C87.9501 14.6237 87.8021 14.6237 87.5861 14.6237C87.3781 14.6157 87.1661 14.6117 86.9501 14.6117C86.7421 14.6037 86.5941 14.5997 86.5061 14.5997H85.1501L86.0141 12.3437H87.2141C87.2941 12.3437 87.4261 12.3437 87.6101 12.3437C87.8021 12.3357 87.9941 12.3317 88.1861 12.3317C88.3781 12.3237 88.5141 12.3197 88.5941 12.3197H90.8621C90.9501 12.3197 91.0861 12.3237 91.2701 12.3317C91.4621 12.3317 91.6581 12.3357 91.8581 12.3437C92.0581 12.3437 92.1981 12.3437 92.2781 12.3437H93.5021L94.2461 14.5997H92.8901C92.8101 14.5997 92.6621 14.6037 92.4461 14.6117C92.2301 14.6117 92.0141 14.6157 91.7981 14.6237C91.5821 14.6237 91.4341 14.6237 91.3541 14.6237H88.0301ZM103.22 16.4357C103.284 16.6357 103.336 16.8557 103.376 17.0957C103.424 17.3277 103.448 17.5597 103.448 17.7917C103.448 17.8957 103.444 17.9997 103.436 18.1037C103.428 18.2077 103.408 18.3037 103.376 18.3917C103.088 18.4397 102.748 18.4837 102.356 18.5237C101.964 18.5637 101.588 18.5837 101.228 18.5837C100.396 18.5837 99.7722 18.3677 99.3562 17.9357C98.9482 17.4957 98.7442 16.8317 98.7442 15.9437V0.979738L98.9002 0.823738H99.9442C100.504 0.823738 100.888 0.959738 101.096 1.23174C101.304 1.49574 101.408 1.93174 101.408 2.53974V15.3677C101.408 16.0797 101.732 16.4357 102.38 16.4357H103.22ZM107.105 6.48774C107.657 6.48774 108.053 6.66374 108.293 7.01574C108.533 7.35974 108.653 7.83574 108.653 8.44374V18.4757C108.469 18.5077 108.257 18.5317 108.017 18.5477C107.777 18.5717 107.537 18.5837 107.297 18.5837C107.057 18.5837 106.817 18.5717 106.577 18.5477C106.337 18.5317 106.121 18.5077 105.929 18.4757V6.65574L106.085 6.48774H107.105ZM112.409 11.0117C112.409 10.2117 112.289 9.65174 112.049 9.33174C111.817 9.00374 111.485 8.83974 111.053 8.83974C110.669 8.84774 110.257 8.97974 109.817 9.23574C109.377 9.48374 108.969 9.81174 108.593 10.2197C108.225 10.6277 107.941 11.0757 107.741 11.5637V8.98374C108.093 8.50374 108.493 8.06774 108.941 7.67574C109.397 7.28374 109.881 6.97174 110.393 6.73974C110.913 6.50774 111.445 6.39174 111.989 6.39174C112.685 6.39174 113.269 6.55574 113.741 6.88374C114.213 7.21174 114.565 7.65974 114.797 8.22774C115.029 8.78774 115.145 9.41974 115.145 10.1237V18.4757C114.953 18.5077 114.737 18.5317 114.497 18.5477C114.257 18.5717 114.021 18.5837 113.789 18.5837C113.549 18.5837 113.309 18.5717 113.069 18.5477C112.829 18.5317 112.609 18.5077 112.409 18.4757V11.0117ZM118.901 10.9877C118.901 10.1877 118.777 9.63174 118.529 9.31974C118.289 8.99974 117.957 8.83974 117.533 8.83974C117.165 8.83974 116.765 8.96374 116.333 9.21174C115.901 9.45974 115.493 9.79574 115.109 10.2197C114.725 10.6357 114.409 11.1077 114.161 11.6357V8.74374C114.545 8.31174 114.973 7.91974 115.445 7.56774C115.917 7.20774 116.417 6.92374 116.945 6.71574C117.473 6.49974 118.005 6.39174 118.541 6.39174C119.237 6.39174 119.813 6.55974 120.269 6.89574C120.733 7.22374 121.077 7.67174 121.301 8.23974C121.525 8.80774 121.637 9.44774 121.637 10.1597V15.8477C121.637 16.2717 121.665 16.6757 121.721 17.0597C121.785 17.4437 121.901 17.7757 122.069 18.0557C121.869 18.2237 121.617 18.3637 121.313 18.4757C121.017 18.5877 120.701 18.6437 120.365 18.6437C119.829 18.6437 119.449 18.4997 119.225 18.2117C119.009 17.9157 118.901 17.4837 118.901 16.9157V10.9877ZM126.048 13.4117V11.4557H131.616V11.1437C131.616 10.6237 131.54 10.1477 131.388 9.71574C131.244 9.28374 131.008 8.93574 130.68 8.67174C130.36 8.40774 129.932 8.27574 129.396 8.27574C128.628 8.27574 128.056 8.59974 127.68 9.24774C127.312 9.89574 127.128 10.7997 127.128 11.9597V12.7997C127.128 13.5037 127.196 14.1477 127.332 14.7317C127.476 15.3077 127.74 15.7637 128.124 16.0997C128.508 16.4357 129.056 16.6037 129.768 16.6037C130.368 16.6037 130.944 16.5237 131.496 16.3637C132.048 16.1957 132.572 15.9837 133.068 15.7277C133.292 15.9437 133.476 16.2157 133.62 16.5437C133.764 16.8637 133.856 17.1637 133.896 17.4437C133.312 17.8597 132.616 18.1917 131.808 18.4397C131.008 18.6797 130.188 18.7997 129.348 18.7997C128.38 18.7997 127.572 18.6317 126.924 18.2957C126.276 17.9517 125.76 17.4877 125.376 16.9037C125 16.3117 124.732 15.6437 124.572 14.8997C124.412 14.1557 124.332 13.3797 124.332 12.5717C124.332 11.3797 124.516 10.3077 124.884 9.35574C125.252 8.40374 125.812 7.65574 126.564 7.11174C127.316 6.55974 128.264 6.28374 129.408 6.28374C130.448 6.28374 131.324 6.51174 132.036 6.96774C132.756 7.41574 133.3 8.02774 133.668 8.80374C134.036 9.57174 134.22 10.4317 134.22 11.3837C134.22 11.7997 134.204 12.1557 134.172 12.4517C134.14 12.7397 134.084 13.0597 134.004 13.4117H126.048ZM140.197 18.4757C140.013 18.5077 139.801 18.5317 139.561 18.5477C139.321 18.5717 139.081 18.5837 138.84 18.5837C138.6 18.5837 138.361 18.5717 138.121 18.5477C137.881 18.5317 137.665 18.5077 137.473 18.4757V9.84774C137.473 9.43174 137.397 9.11574 137.245 8.89974C137.093 8.68374 136.817 8.57574 136.417 8.57574H136.117C136.045 8.25574 136.009 7.93574 136.009 7.61574C136.009 7.46374 136.017 7.30374 136.033 7.13574C136.049 6.96774 136.077 6.79974 136.117 6.63174C136.437 6.59174 136.741 6.56374 137.029 6.54774C137.325 6.53174 137.573 6.52374 137.773 6.52374H138.121C138.769 6.52374 139.277 6.72774 139.645 7.13574C140.013 7.53574 140.197 8.08774 140.197 8.79174V18.4757ZM136.741 3.36774C136.741 3.18374 136.761 2.98774 136.801 2.77974C136.841 2.57174 136.897 2.38774 136.969 2.22774C137.129 2.13974 137.341 2.06774 137.605 2.01174C137.877 1.95574 138.137 1.92774 138.385 1.92774C138.633 1.92774 138.897 1.95574 139.177 2.01174C139.457 2.06774 139.665 2.13974 139.801 2.22774C139.873 2.38774 139.929 2.57574 139.969 2.79174C140.009 2.99974 140.029 3.19174 140.029 3.36774C140.029 3.55174 140.009 3.74774 139.969 3.95574C139.929 4.16374 139.873 4.34374 139.801 4.49574C139.673 4.58374 139.465 4.65974 139.177 4.72374C138.897 4.77974 138.633 4.80774 138.385 4.80774C138.137 4.80774 137.873 4.77974 137.593 4.72374C137.321 4.66774 137.113 4.59174 136.969 4.49574C136.897 4.34374 136.841 4.16374 136.801 3.95574C136.761 3.74774 136.741 3.55174 136.741 3.36774ZM152.877 15.0797C152.877 15.5277 152.925 15.9477 153.021 16.3397C153.125 16.7317 153.301 17.0357 153.549 17.2517C153.485 17.4997 153.357 17.7637 153.165 18.0437C152.981 18.3157 152.785 18.5197 152.577 18.6557C151.737 18.5277 151.133 18.1597 150.765 17.5517C150.397 16.9357 150.213 16.2197 150.213 15.4037V0.979738L150.369 0.823738H151.413C151.973 0.823738 152.357 0.959738 152.565 1.23174C152.773 1.49574 152.877 1.93174 152.877 2.53974V15.0797ZM142.953 12.6797C142.953 11.2637 143.173 10.0917 143.613 9.16374C144.061 8.22774 144.637 7.53174 145.341 7.07574C146.053 6.61974 146.801 6.39174 147.585 6.39174C148.361 6.39174 149.069 6.55174 149.709 6.87174C150.357 7.19174 150.957 7.54374 151.509 7.92774L151.173 10.0397C150.709 9.67174 150.201 9.32774 149.649 9.00774C149.105 8.68774 148.553 8.52774 147.993 8.52774C147.561 8.52774 147.173 8.68374 146.829 8.99574C146.493 9.29974 146.225 9.75974 146.025 10.3757C145.833 10.9917 145.737 11.7677 145.737 12.7037C145.737 13.6077 145.829 14.3437 146.013 14.9117C146.197 15.4797 146.441 15.8957 146.745 16.1597C147.057 16.4157 147.393 16.5437 147.753 16.5437C148.129 16.5437 148.529 16.4437 148.953 16.2437C149.377 16.0357 149.769 15.7037 150.129 15.2477C150.497 14.7917 150.781 14.1957 150.981 13.4597L151.557 15.3557C151.421 15.9157 151.145 16.4597 150.729 16.9877C150.313 17.5157 149.797 17.9517 149.181 18.2957C148.565 18.6317 147.873 18.7997 147.105 18.7997C146.185 18.7997 145.417 18.5397 144.801 18.0197C144.185 17.4997 143.721 16.7797 143.409 15.8597C143.105 14.9397 142.953 13.8797 142.953 12.6797ZM155.679 15.2477C155.679 14.3197 155.883 13.5597 156.291 12.9677C156.707 12.3757 157.263 11.9397 157.959 11.6597C158.663 11.3717 159.443 11.2277 160.299 11.2277C160.731 11.2277 161.227 11.2477 161.787 11.2877C162.347 11.3197 162.867 11.3877 163.347 11.4917V13.3037C162.939 13.2077 162.471 13.1477 161.943 13.1237C161.415 13.0917 160.935 13.0757 160.503 13.0757C159.815 13.0757 159.287 13.2557 158.919 13.6157C158.551 13.9677 158.367 14.4477 158.367 15.0557C158.367 15.5117 158.499 15.8957 158.763 16.2077C159.027 16.5197 159.403 16.6757 159.891 16.6757C160.451 16.6757 161.039 16.4797 161.655 16.0877C162.279 15.6957 162.803 15.1237 163.227 14.3717L163.635 16.3517C163.347 16.6957 162.991 17.0597 162.567 17.4437C162.151 17.8197 161.667 18.1397 161.115 18.4037C160.563 18.6677 159.935 18.7997 159.231 18.7997C158.431 18.7997 157.767 18.6237 157.239 18.2717C156.711 17.9117 156.319 17.4597 156.063 16.9157C155.807 16.3717 155.679 15.8157 155.679 15.2477ZM165.855 17.2517C165.799 17.4997 165.675 17.7637 165.483 18.0437C165.299 18.3157 165.103 18.5197 164.895 18.6557C164.351 18.5757 163.907 18.3957 163.563 18.1157C163.219 17.8357 162.963 17.4997 162.795 17.1077C162.627 16.7077 162.523 16.2997 162.483 15.8837V10.5197C162.483 9.81574 162.319 9.30774 161.991 8.99574C161.671 8.67574 161.207 8.51574 160.599 8.51574C160.023 8.51574 159.415 8.60774 158.775 8.79174C158.143 8.96774 157.507 9.17174 156.867 9.40374C156.659 9.18774 156.487 8.89174 156.351 8.51574C156.215 8.13974 156.139 7.77574 156.123 7.42374C156.587 7.23174 157.111 7.05174 157.695 6.88374C158.279 6.71574 158.875 6.58374 159.483 6.48774C160.091 6.39174 160.667 6.34374 161.211 6.34374C161.979 6.34374 162.659 6.48774 163.251 6.77574C163.851 7.05574 164.323 7.49174 164.667 8.08374C165.011 8.67574 165.183 9.43974 165.183 10.3757V15.2957C165.183 15.7197 165.227 16.0957 165.315 16.4237C165.411 16.7517 165.591 17.0277 165.855 17.2517Z" fill="#212529"/>
</svg>
