<svg width="74" height="48" viewBox="0 0 74 48" fill="none" xmlns="http://www.w3.org/2000/svg">
<g filter="url(#filter0_b_41_165)">
<g filter="url(#filter1_b_41_165)">
<rect x="10" y="12" width="64" height="20" rx="10" fill="#F8F9FA"/>
<rect x="10.5" y="12.5" width="63" height="19" rx="9.5" stroke="#ADB5BD"/>
</g>
<g filter="url(#filter2_d_41_165)">
<rect x="8" y="6" width="32" height="32" rx="16" fill="#F8F9FA" shape-rendering="crispEdges"/>
<path d="M24 25.75C26.0711 25.75 27.75 24.0711 27.75 22C27.75 19.9289 26.0711 18.25 24 18.25C21.9289 18.25 20.25 19.9289 20.25 22C20.25 24.0711 21.9289 25.75 24 25.75Z" stroke="#212529" stroke-linecap="round" stroke-linejoin="round"/>
<path d="M24 16.25V15" stroke="#212529" stroke-linecap="round" stroke-linejoin="round"/>
<path d="M19.9312 17.9313L19.05 17.05" stroke="#212529" stroke-linecap="round" stroke-linejoin="round"/>
<path d="M18.25 22H17" stroke="#212529" stroke-linecap="round" stroke-linejoin="round"/>
<path d="M19.9312 26.0688L19.05 26.95" stroke="#212529" stroke-linecap="round" stroke-linejoin="round"/>
<path d="M24 27.75V29" stroke="#212529" stroke-linecap="round" stroke-linejoin="round"/>
<path d="M28.0687 26.0688L28.9499 26.95" stroke="#212529" stroke-linecap="round" stroke-linejoin="round"/>
<path d="M29.75 22H31" stroke="#212529" stroke-linecap="round" stroke-linejoin="round"/>
<path d="M28.0687 17.9313L28.9499 17.05" stroke="#212529" stroke-linecap="round" stroke-linejoin="round"/>
</g>
</g>
<defs>
<filter id="filter0_b_41_165" x="4" y="-2" width="74" height="48" filterUnits="userSpaceOnUse" color-interpolation-filters="sRGB">
<feFlood flood-opacity="0" result="BackgroundImageFix"/>
<feGaussianBlur in="BackgroundImageFix" stdDeviation="2"/>
<feComposite in2="SourceAlpha" operator="in" result="effect1_backgroundBlur_41_165"/>
<feBlend mode="normal" in="SourceGraphic" in2="effect1_backgroundBlur_41_165" result="shape"/>
</filter>
<filter id="filter1_b_41_165" x="2" y="4" width="80" height="36" filterUnits="userSpaceOnUse" color-interpolation-filters="sRGB">
<feFlood flood-opacity="0" result="BackgroundImageFix"/>
<feGaussianBlur in="BackgroundImageFix" stdDeviation="4"/>
<feComposite in2="SourceAlpha" operator="in" result="effect1_backgroundBlur_41_165"/>
<feBlend mode="normal" in="SourceGraphic" in2="effect1_backgroundBlur_41_165" result="shape"/>
</filter>
<filter id="filter2_d_41_165" x="0" y="0" width="48" height="48" filterUnits="userSpaceOnUse" color-interpolation-filters="sRGB">
<feFlood flood-opacity="0" result="BackgroundImageFix"/>
<feColorMatrix in="SourceAlpha" type="matrix" values="0 0 0 0 0 0 0 0 0 0 0 0 0 0 0 0 0 0 127 0" result="hardAlpha"/>
<feOffset dy="2"/>
<feGaussianBlur stdDeviation="4"/>
<feComposite in2="hardAlpha" operator="out"/>
<feColorMatrix type="matrix" values="0 0 0 0 0 0 0 0 0 0 0 0 0 0 0 0 0 0 0.1 0"/>
<feBlend mode="normal" in2="BackgroundImageFix" result="effect1_dropShadow_41_165"/>
<feBlend mode="normal" in="SourceGraphic" in2="effect1_dropShadow_41_165" result="shape"/>
</filter>
</defs>
</svg>
